<svg width="1359" height="838" viewBox="0 0 1359 838" fill="none" xmlns="http://www.w3.org/2000/svg">
<path d="M334.942 33.2845L833.479 799.668L356.713 706.673L894.925 33.2845L334.942 207.323L646.831 9L1152.13 314.074L86.8477 706.673L1234.66 693.519L334.942 33.2845Z" stroke="#2A2A41"/>
<circle cx="37.9012" cy="312.901" r="19.9012" fill="url(#paint0_linear)"/>
<circle cx="37.9012" cy="312.901" r="27.9012" stroke="url(#paint1_linear)" stroke-opacity="0.1" stroke-width="16"/>
<circle cx="842.901" cy="801.901" r="19.9012" fill="url(#paint2_linear)"/>
<circle cx="842.901" cy="801.901" r="27.9012" stroke="url(#paint3_linear)" stroke-opacity="0.1" stroke-width="16"/>
<ellipse cx="895.265" cy="29.4389" rx="9.14378" ry="8.60591" fill="url(#paint4_linear)"/>
<path d="M895.265 46.0448C904.269 46.0448 912.409 39.0601 912.409 29.4389C912.409 19.8177 904.269 12.833 895.265 12.833C886.26 12.833 878.121 19.8177 878.121 29.4389C878.121 39.0601 886.26 46.0448 895.265 46.0448Z" stroke="url(#paint5_linear)" stroke-opacity="0.1" stroke-width="16"/>
<ellipse cx="320.82" cy="25.1362" rx="9.14378" ry="8.60591" fill="url(#paint6_linear)"/>
<path d="M320.82 41.7421C329.824 41.7421 337.963 34.7574 337.963 25.1362C337.963 15.515 329.824 8.53027 320.82 8.53027C311.815 8.53027 303.676 15.515 303.676 25.1362C303.676 34.7574 311.815 41.7421 320.82 41.7421Z" stroke="url(#paint7_linear)" stroke-opacity="0.1" stroke-width="16"/>
<defs>
<linearGradient id="paint0_linear" x1="28.4405" y1="294.225" x2="46.4434" y2="330.873" gradientUnits="userSpaceOnUse">
<stop stop-color="#304B80"/>
<stop offset="1" stop-color="#07142C"/>
<stop offset="1" stop-color="#2F518E"/>
</linearGradient>
<linearGradient id="paint1_linear" x1="54.297" y1="332.802" x2="-10.9849" y2="253.122" gradientUnits="userSpaceOnUse">
<stop/>
<stop offset="1" stop-color="#01C0FF"/>
</linearGradient>
<linearGradient id="paint2_linear" x1="833.44" y1="783.225" x2="851.443" y2="819.873" gradientUnits="userSpaceOnUse">
<stop stop-color="#79D5F0"/>
<stop offset="1" stop-color="#69D2F2"/>
</linearGradient>
<linearGradient id="paint3_linear" x1="859.297" y1="821.802" x2="794.015" y2="742.122" gradientUnits="userSpaceOnUse">
<stop stop-color="white"/>
<stop offset="1" stop-color="#01C0FF"/>
</linearGradient>
<linearGradient id="paint4_linear" x1="890.918" y1="21.3626" x2="898.411" y2="37.5705" gradientUnits="userSpaceOnUse">
<stop stop-color="#304B80"/>
<stop offset="1" stop-color="#07142C"/>
<stop offset="1" stop-color="#2F518E"/>
</linearGradient>
<linearGradient id="paint5_linear" x1="902.798" y1="38.0448" x2="874.952" y2="1.93236" gradientUnits="userSpaceOnUse">
<stop/>
<stop offset="1" stop-color="#01C0FF"/>
</linearGradient>
<linearGradient id="paint6_linear" x1="316.473" y1="17.0599" x2="323.966" y2="33.2678" gradientUnits="userSpaceOnUse">
<stop stop-color="#304B80"/>
<stop offset="1" stop-color="#07142C"/>
<stop offset="1" stop-color="#2F518E"/>
</linearGradient>
<linearGradient id="paint7_linear" x1="328.353" y1="33.7421" x2="300.506" y2="-2.37037" gradientUnits="userSpaceOnUse">
<stop/>
<stop offset="1" stop-color="#01C0FF"/>
</linearGradient>
</defs>
</svg>
