<svg width="92" height="91" viewBox="0 0 92 91" fill="none" xmlns="http://www.w3.org/2000/svg">
<path d="M52.044 91.0002C52.044 91.0002 47.1016 84.9316 35.5495 82.9487C24.2951 80.305 10.6886 69.2191 7.20514 53.6869C3.15594 38.2449 9.97407 22.1419 18.6679 14.6311C27.3022 6.72986 35.4006 5.4981 35.2518 5.37793C35.4602 5.61827 27.4213 7.03029 18.9954 14.9616C10.51 22.5324 4.04914 38.4251 8.12811 53.4166C11.7009 68.5582 25.0097 79.1633 35.877 81.6269C38.4971 82.0174 40.8194 82.6483 42.844 83.3994C50.5256 86.1333 53.4732 89.6784 53.4732 89.6784L52.044 91.0002Z" fill="#7B7B7B"/>
<path d="M39.9562 91C39.9562 91 44.8986 84.9313 56.4508 82.9485C67.7051 80.3047 81.3116 69.2189 84.7951 53.6867C88.8443 38.2747 82.0262 22.1717 73.3323 14.6609C64.698 6.75965 56.5996 5.52789 56.7485 5.40771C56.5401 5.64806 64.5789 7.06008 73.0048 14.9914C81.4903 22.5622 87.9511 38.4549 83.8722 53.4463C80.2993 68.588 66.9906 79.1931 56.1232 81.6566C53.5032 82.0472 51.1808 82.6781 49.1562 83.4292C41.4747 86.1631 38.5271 89.7081 38.5271 89.7081L39.9562 91Z" fill="#7B7B7B"/>
<path d="M32.2147 73.3047C32.2147 73.3047 35.3707 74.3862 36.4128 76.9399C37.7228 80.0944 37.1571 82.7682 37.1571 82.7682C37.1571 82.7682 34.0011 81.1158 32.959 79.4034C31.4704 76.9699 32.2147 73.3047 32.2147 73.3047Z" fill="#7B7B7B"/>
<path d="M26.7068 87.2145C26.7068 87.2145 29.8926 88.2059 32.2149 86.7638C35.1029 84.9913 36.2046 82.4978 36.2046 82.4978C36.2046 82.4978 32.6913 81.957 30.8453 82.7381C28.2253 83.8196 26.7068 87.2145 26.7068 87.2145Z" fill="#7B7B7B"/>
<path d="M27.3321 70.5708C27.3321 70.5708 30.1904 72.1631 30.7561 74.7768C31.4706 78.0515 30.4881 80.515 30.4881 80.515C30.4881 80.515 27.7192 78.382 27.0046 76.5493C25.9625 73.9657 27.3321 70.5708 27.3321 70.5708Z" fill="#7B7B7B"/>
<path d="M19.6507 83.0688C19.6507 83.0688 22.5685 84.571 25.0397 83.5796C28.1361 82.3478 29.595 80.1547 29.595 80.1547C29.595 80.1547 26.2902 79.0431 24.3847 79.4637C21.6753 80.0345 19.6507 83.0688 19.6507 83.0688Z" fill="#7B7B7B"/>
<path d="M22.9251 67.0254C22.9251 67.0254 25.3963 69.0683 25.5154 71.682C25.6642 74.9868 24.2947 77.1799 24.2947 77.1799C24.2947 77.1799 21.9723 74.6262 21.5853 72.7335C21.0196 70.0898 22.9251 67.0254 22.9251 67.0254Z" fill="#7B7B7B"/>
<path d="M13.3979 77.7511C13.3979 77.7511 15.9584 79.7039 18.5189 79.1631C21.7047 78.5022 23.5209 76.6395 23.5209 76.6395C23.5209 76.6395 20.5137 74.9872 18.6082 75.0773C15.8691 75.1975 13.3979 77.7511 13.3979 77.7511Z" fill="#7B7B7B"/>
<path d="M19.1742 62.7295C19.1742 62.7295 21.2286 65.1029 20.9011 67.6866C20.4843 70.9012 18.7872 72.7939 18.7872 72.7939C18.7872 72.7939 17.0008 69.9398 16.9115 68.0471C16.8519 65.3733 19.1742 62.7295 19.1742 62.7295Z" fill="#7B7B7B"/>
<path d="M8.18787 71.442C8.18787 71.442 10.3316 73.7553 12.8921 73.6952C16.0778 73.6051 18.1322 72.1029 18.1322 72.1029C18.1322 72.1029 15.5121 69.9999 13.6364 69.7295C11.0163 69.3991 8.18787 71.442 8.18787 71.442Z" fill="#7B7B7B"/>
<path d="M16.2265 57.8623C16.2265 57.8623 17.8045 60.5061 17.0601 62.9396C16.1074 65.9438 14.1721 67.5061 14.1721 67.5061C14.1721 67.5061 12.9216 64.4417 13.1896 62.6091C13.5171 59.9953 16.2265 57.8623 16.2265 57.8623Z" fill="#7B7B7B"/>
<path d="M4.13861 64.3817C4.13861 64.3817 5.80593 66.9954 8.27713 67.356C11.3736 67.8366 13.6066 66.7251 13.6066 66.7251C13.6066 66.7251 11.4331 64.2315 9.67648 63.6607C7.20528 62.8796 4.13861 64.3817 4.13861 64.3817Z" fill="#7B7B7B"/>
<path d="M14.1724 52.5752C14.1724 52.5752 15.2443 55.3992 14.1129 57.6224C12.7135 60.3863 10.54 61.528 10.54 61.528C10.54 61.528 9.85525 58.3735 10.3912 56.631C11.2248 54.1675 14.1724 52.5752 14.1724 52.5752Z" fill="#7B7B7B"/>
<path d="M1.42929 56.7812C1.42929 56.7812 2.59046 59.5752 4.94256 60.3563C7.86037 61.3477 10.1827 60.6567 10.1827 60.6567C10.1827 60.6567 8.51539 57.8928 6.90762 57.0215C4.64483 55.8799 1.42929 56.7812 1.42929 56.7812Z" fill="#7B7B7B"/>
<path d="M13.041 47.0171C13.041 47.0171 13.6067 49.9313 12.1478 51.854C10.3316 54.2574 8.03903 55.0085 8.03903 55.0085C8.03903 55.0085 7.89016 51.824 8.72382 50.2617C9.91476 48.0385 13.041 47.0171 13.041 47.0171Z" fill="#7B7B7B"/>
<path d="M0.0300293 48.9099C0.0300293 48.9099 0.685046 51.8241 2.79897 52.9657C5.44881 54.4078 7.80091 54.1674 7.80091 54.1674C7.80091 54.1674 6.63975 51.2232 5.24039 50.1116C3.27534 48.5794 0.0300293 48.9099 0.0300293 48.9099Z" fill="#7B7B7B"/>
<path d="M12.892 41.3091C12.892 41.3091 12.9516 44.2232 11.195 45.8456C9.02149 47.8584 6.69916 48.1889 6.69916 48.1889C6.69916 48.1889 7.11599 45.0945 8.18783 43.7125C9.70628 41.7898 12.892 41.3091 12.892 41.3091Z" fill="#7B7B7B"/>
<path d="M0 40.9185C0 40.9185 0.148868 43.8326 1.99482 45.3348C4.28738 47.1974 6.63949 47.3476 6.63949 47.3476C6.63949 47.3476 6.01425 44.2833 4.85308 42.9914C3.21554 41.1288 0 40.9185 0 40.9185Z" fill="#7B7B7B"/>
<path d="M13.6957 35.5108C13.6957 35.5108 13.2491 38.3348 11.3138 39.5966C8.87239 41.1589 6.57983 41.0687 6.57983 41.0687C6.57983 41.0687 7.47304 38.1546 8.7533 37.0129C10.5397 35.3906 13.6957 35.5108 13.6957 35.5108Z" fill="#7B7B7B"/>
<path d="M1.33983 32.897C1.33983 32.897 0.982546 35.721 2.53077 37.4935C4.43627 39.6867 6.66929 40.2274 6.66929 40.2274C6.66929 40.2274 6.57997 37.1631 5.68676 35.721C4.37673 33.6781 1.33983 32.897 1.33983 32.897Z" fill="#7B7B7B"/>
<path d="M15.5121 29.8327C15.5121 29.8327 14.6188 32.4765 12.5049 33.3477C9.88486 34.4593 7.7114 33.9786 7.7114 33.9786C7.7114 33.9786 9.08098 31.3348 10.5101 30.4335C12.4752 29.1717 15.5121 29.8327 15.5121 29.8327Z" fill="#7B7B7B"/>
<path d="M4.01935 25.1758C4.01935 25.1758 3.21547 27.8496 4.37663 29.8024C5.86531 32.2359 7.88991 33.1672 7.88991 33.1672C7.88991 33.1672 8.33651 30.223 7.71126 28.6608C6.81806 26.4676 4.01935 25.1758 4.01935 25.1758Z" fill="#7B7B7B"/>
<path d="M18.281 24.5752C18.281 24.5752 16.971 26.9786 14.7975 27.4593C12.0881 28.0601 10.0635 27.249 10.0635 27.249C10.0635 27.249 11.8201 24.9357 13.3386 24.3048C15.4823 23.4335 18.281 24.5752 18.281 24.5752Z" fill="#7B7B7B"/>
<path d="M7.97931 18.0859C7.97931 18.0859 6.72882 20.5194 7.56248 22.6224C8.57478 25.2362 10.391 26.4679 10.391 26.4679C10.391 26.4679 11.3139 23.6739 10.9864 22.0816C10.4803 19.8284 7.97931 18.0859 7.97931 18.0859Z" fill="#7B7B7B"/>
<path d="M21.9726 19.8587C21.9726 19.8587 20.3053 21.9617 18.1318 22.0519C15.3927 22.2021 13.5765 21.0304 13.5765 21.0304C13.5765 21.0304 15.6904 19.0776 17.2386 18.7472C19.4419 18.2965 21.9726 19.8587 21.9726 19.8587Z" fill="#7B7B7B"/>
<path d="M13.13 11.8672C13.13 11.8672 11.5222 14.0002 11.939 16.1633C12.475 18.8672 14.0232 20.3693 14.0232 20.3693C14.0232 20.3693 15.3928 17.8457 15.3332 16.2234C15.2439 13.9702 13.13 11.8672 13.13 11.8672Z" fill="#7B7B7B"/>
<path d="M26.3794 15.9528C26.3794 15.9528 24.4144 17.6953 22.3005 17.3949C19.6506 17.0344 18.0726 15.6223 18.0726 15.6223C18.0726 15.6223 20.4247 14.1202 22.0027 14.0601C24.206 13.97 26.3794 15.9528 26.3794 15.9528Z" fill="#7B7B7B"/>
<path d="M19.1744 6.69971C19.1744 6.69971 17.2689 8.50228 17.2987 10.6654C17.3582 13.3692 18.6087 15.0817 18.6087 15.0817C18.6087 15.0817 20.3356 12.8885 20.5738 11.2963C20.8715 9.0731 19.1744 6.69971 19.1744 6.69971Z" fill="#7B7B7B"/>
<path d="M31.3516 12.8586C31.3516 12.8586 29.1483 14.1805 27.1535 13.5496C24.6823 12.7684 23.402 11.1161 23.402 11.1161C23.402 11.1161 25.9328 10.0646 27.4512 10.2749C29.5949 10.6054 31.3516 12.8586 31.3516 12.8586Z" fill="#7B7B7B"/>
<path d="M25.9626 2.7041C25.9626 2.7041 23.819 4.11612 23.4914 6.18908C23.1044 8.80281 23.9976 10.6655 23.9976 10.6655C23.9976 10.6655 26.052 8.83286 26.5283 7.36075C27.2131 5.28779 25.9626 2.7041 25.9626 2.7041Z" fill="#7B7B7B"/>
<path d="M36.7106 10.725C36.7106 10.725 34.3585 11.6263 32.5423 10.6649C30.2795 9.4632 29.3268 7.66062 29.3268 7.66062C29.3268 7.66062 31.9469 7.08981 33.376 7.54045C35.3708 8.26148 36.7106 10.725 36.7106 10.725Z" fill="#7B7B7B"/>
<path d="M33.2273 0C33.2273 0 30.905 0.991416 30.25 2.94421C29.4461 5.37768 29.982 7.36052 29.982 7.36052C29.982 7.36052 32.2746 5.9485 32.9892 4.59657C33.9717 2.70386 33.2273 0 33.2273 0Z" fill="#7B7B7B"/>
<path d="M33.3166 6.03865C33.3166 6.03865 35.0435 7.03007 36.5917 6.4893C38.4972 5.82835 39.45 4.50647 39.45 4.50647C39.45 4.50647 37.4551 3.75539 36.294 3.93565C34.6267 4.26612 33.3166 6.03865 33.3166 6.03865Z" fill="#7B7B7B"/>
<path d="M59.7851 73.3047C59.7851 73.3047 56.6291 74.3862 55.587 76.9399C54.277 80.0944 54.8427 82.7682 54.8427 82.7682C54.8427 82.7682 57.9987 81.1158 59.0407 79.4034C60.5294 76.9699 59.7851 73.3047 59.7851 73.3047Z" fill="#7B7B7B"/>
<path d="M65.2932 87.2145C65.2932 87.2145 62.1075 88.2059 59.7851 86.7638C56.8971 84.9913 55.7955 82.4978 55.7955 82.4978C55.7955 82.4978 59.3087 81.957 61.1547 82.7381C63.7748 83.8196 65.2932 87.2145 65.2932 87.2145Z" fill="#7B7B7B"/>
<path d="M64.6681 70.5708C64.6681 70.5708 61.8098 72.1631 61.2441 74.7768C60.5296 78.0515 61.5121 80.515 61.5121 80.515C61.5121 80.515 64.281 78.382 64.9956 76.5493C66.0377 73.9657 64.6681 70.5708 64.6681 70.5708Z" fill="#7B7B7B"/>
<path d="M72.3492 83.0684C72.3492 83.0684 69.4314 84.5705 66.9602 83.5791C63.8638 82.3473 62.3751 80.1542 62.3751 80.1542C62.3751 80.1542 65.68 79.0426 67.5855 79.4632C70.3246 80.034 72.3492 83.0684 72.3492 83.0684Z" fill="#7B7B7B"/>
<path d="M69.0745 67.0254C69.0745 67.0254 66.6033 69.0683 66.4842 71.682C66.3353 74.9868 67.7049 77.1799 67.7049 77.1799C67.7049 77.1799 70.0272 74.6262 70.4143 72.7335C70.9502 70.0898 69.0745 67.0254 69.0745 67.0254Z" fill="#7B7B7B"/>
<path d="M78.6021 77.7511C78.6021 77.7511 76.0416 79.7039 73.4811 79.1631C70.2953 78.5022 68.4791 76.6395 68.4791 76.6395C68.4791 76.6395 71.4862 74.9872 73.3918 75.0773C76.1011 75.1975 78.6021 77.7511 78.6021 77.7511Z" fill="#7B7B7B"/>
<path d="M72.8258 62.7295C72.8258 62.7295 70.7715 65.1029 71.099 67.6866C71.5158 70.9012 73.2129 72.7939 73.2129 72.7939C73.2129 72.7939 74.9993 69.9398 75.0588 68.0471C75.1482 65.3733 72.8258 62.7295 72.8258 62.7295Z" fill="#7B7B7B"/>
<path d="M83.8121 71.442C83.8121 71.442 81.6684 73.7553 79.1079 73.6952C75.9221 73.6051 73.8677 72.1029 73.8677 72.1029C73.8677 72.1029 76.4878 69.9999 78.3635 69.7295C80.9836 69.3991 83.8121 71.442 83.8121 71.442Z" fill="#7B7B7B"/>
<path d="M75.7736 57.8623C75.7736 57.8623 74.1956 60.5061 74.94 62.9396C75.8927 65.9438 77.828 67.5061 77.828 67.5061C77.828 67.5061 79.0785 64.4417 78.8105 62.6091C78.483 59.9953 75.7736 57.8623 75.7736 57.8623Z" fill="#7B7B7B"/>
<path d="M87.8618 64.3817C87.8618 64.3817 86.1945 66.9954 83.7233 67.356C80.6268 67.8366 78.3938 66.7251 78.3938 66.7251C78.3938 66.7251 80.5673 64.2315 82.3239 63.6607C84.7951 62.8796 87.8618 64.3817 87.8618 64.3817Z" fill="#7B7B7B"/>
<path d="M77.8283 52.5752C77.8283 52.5752 76.7565 55.3992 77.8879 57.6224C79.2872 60.3863 81.4607 61.528 81.4607 61.528C81.4607 61.528 82.1455 58.3735 81.6095 56.631C80.7759 54.1675 77.8283 52.5752 77.8283 52.5752Z" fill="#7B7B7B"/>
<path d="M90.5712 56.7812C90.5712 56.7812 89.41 59.5752 87.0579 60.3563C84.1401 61.3477 81.8178 60.6567 81.8178 60.6567C81.8178 60.6567 83.4851 57.8928 85.0929 57.0215C87.3556 55.8799 90.5712 56.7812 90.5712 56.7812Z" fill="#7B7B7B"/>
<path d="M78.9595 47.0171C78.9595 47.0171 78.3938 49.9313 79.8527 51.854C81.6688 54.2574 83.9614 55.0085 83.9614 55.0085C83.9614 55.0085 84.1103 51.824 83.2766 50.2617C82.0857 48.0385 78.9595 47.0171 78.9595 47.0171Z" fill="#7B7B7B"/>
<path d="M91.9705 48.9099C91.9705 48.9099 91.3155 51.8241 89.2016 52.9657C86.5517 54.4078 84.1996 54.1674 84.1996 54.1674C84.1996 54.1674 85.3608 51.2232 86.7601 50.1116C88.6954 48.5794 91.9705 48.9099 91.9705 48.9099Z" fill="#7B7B7B"/>
<path d="M79.1083 41.3091C79.1083 41.3091 79.0487 44.2232 80.8054 45.8456C82.9788 47.8584 85.3011 48.1889 85.3011 48.1889C85.3011 48.1889 84.9141 45.0945 83.8125 43.7125C82.294 41.7898 79.1083 41.3091 79.1083 41.3091Z" fill="#7B7B7B"/>
<path d="M92 40.9185C92 40.9185 91.8511 43.8326 90.0051 45.3348C87.7126 47.1974 85.3605 47.3476 85.3605 47.3476C85.3605 47.3476 85.9857 44.2833 87.1469 42.9914C88.7844 41.1288 92 40.9185 92 40.9185Z" fill="#7B7B7B"/>
<path d="M78.3043 35.5108C78.3043 35.5108 78.7509 38.3348 80.6861 39.5966C83.1276 41.1589 85.4201 41.0687 85.4201 41.0687C85.4201 41.0687 84.5269 38.1546 83.2467 37.0129C81.4603 35.3906 78.3043 35.5108 78.3043 35.5108Z" fill="#7B7B7B"/>
<path d="M90.6604 32.897C90.6604 32.897 91.0177 35.721 89.4695 37.4935C87.564 39.6867 85.331 40.2274 85.331 40.2274C85.331 40.2274 85.4203 37.1631 86.3135 35.721C87.6235 33.6781 90.6604 32.897 90.6604 32.897Z" fill="#7B7B7B"/>
<path d="M76.488 29.8327C76.488 29.8327 77.3812 32.4765 79.4952 33.3477C82.1152 34.4593 84.2887 33.9786 84.2887 33.9786C84.2887 33.9786 82.9191 31.3348 81.49 30.4335C79.5249 29.1717 76.488 29.8327 76.488 29.8327Z" fill="#7B7B7B"/>
<path d="M87.9806 25.1758C87.9806 25.1758 88.7845 27.8496 87.6233 29.8024C86.1346 32.2359 84.11 33.1672 84.11 33.1672C84.11 33.1672 83.6634 30.223 84.2887 28.6608C85.1521 26.4676 87.9806 25.1758 87.9806 25.1758Z" fill="#7B7B7B"/>
<path d="M73.6894 24.5752C73.6894 24.5752 74.9994 26.9786 77.1729 27.4593C79.8823 28.0601 81.9069 27.249 81.9069 27.249C81.9069 27.249 80.1502 24.9357 78.6318 24.3048C76.5178 23.4335 73.6894 24.5752 73.6894 24.5752Z" fill="#7B7B7B"/>
<path d="M84.0209 18.0859C84.0209 18.0859 85.2714 20.5194 84.4377 22.6224C83.4254 25.2362 81.6092 26.4679 81.6092 26.4679C81.6092 26.4679 80.6862 23.6739 81.0138 22.0816C81.5199 19.8284 84.0209 18.0859 84.0209 18.0859Z" fill="#7B7B7B"/>
<path d="M70.027 19.8587C70.027 19.8587 71.6944 21.9617 73.8678 22.0519C76.5772 22.1721 78.4232 21.0304 78.4232 21.0304C78.4232 21.0304 76.3093 19.0776 74.761 18.7472C72.528 18.2965 70.027 19.8587 70.027 19.8587Z" fill="#7B7B7B"/>
<path d="M78.8701 11.8672C78.8701 11.8672 80.4779 14.0002 80.0611 16.1633C79.5252 18.8672 77.9769 20.3693 77.9769 20.3693C77.9769 20.3693 76.6073 17.8457 76.6669 16.2234C76.7562 13.9702 78.8701 11.8672 78.8701 11.8672Z" fill="#7B7B7B"/>
<path d="M65.6208 15.9528C65.6208 15.9528 67.5858 17.6953 69.6998 17.3949C72.3496 17.0344 73.8978 15.6223 73.8978 15.6223C73.8978 15.6223 71.5457 14.1202 69.9677 14.0601C67.7943 13.97 65.6208 15.9528 65.6208 15.9528Z" fill="#7B7B7B"/>
<path d="M72.8262 6.69971C72.8262 6.69971 74.7317 8.50228 74.7019 10.6654C74.6424 13.3692 73.3919 15.0817 73.3919 15.0817C73.3919 15.0817 71.665 12.8885 71.4268 11.2963C71.1291 9.0731 72.8262 6.69971 72.8262 6.69971Z" fill="#7B7B7B"/>
<path d="M60.6485 12.8586C60.6485 12.8586 62.8517 14.1805 64.8465 13.5496C67.3475 12.7684 68.598 11.1161 68.598 11.1161C68.598 11.1161 66.0673 10.0646 64.5488 10.2749C62.4051 10.6054 60.6485 12.8586 60.6485 12.8586Z" fill="#7B7B7B"/>
<path d="M66.0375 2.7041C66.0375 2.7041 68.1811 4.11612 68.5087 6.18908C68.8957 8.80281 68.0025 10.6655 68.0025 10.6655C68.0025 10.6655 65.9481 8.83286 65.4718 7.36075C64.787 5.28779 66.0375 2.7041 66.0375 2.7041Z" fill="#7B7B7B"/>
<path d="M55.2892 10.725C55.2892 10.725 57.6414 11.6263 59.4575 10.6649C61.7203 9.4632 62.6731 7.66062 62.6731 7.66062C62.6731 7.66062 60.053 7.08981 58.6239 7.54045C56.6291 8.26148 55.2892 10.725 55.2892 10.725Z" fill="#7B7B7B"/>
<path d="M58.7727 0C58.7727 0 61.095 0.991416 61.75 2.94421C62.5539 5.37768 62.018 7.36052 62.018 7.36052C62.018 7.36052 59.7254 5.9485 59.0109 4.59657C58.0283 2.70386 58.7727 0 58.7727 0Z" fill="#7B7B7B"/>
<path d="M58.6838 6.03865C58.6838 6.03865 56.9569 7.03007 55.4087 6.4893C53.5032 5.82835 52.5504 4.50647 52.5504 4.50647C52.5504 4.50647 54.5453 3.75539 55.7064 3.93565C57.3738 4.26612 58.6838 6.03865 58.6838 6.03865Z" fill="#7B7B7B"/>
</svg>
