<svg width="21" height="20" viewBox="0 0 21 20" fill="none" xmlns="http://www.w3.org/2000/svg">
<path fill-rule="evenodd" clip-rule="evenodd" d="M10.0066 20C4.48374 20 0.0065918 15.5228 0.0065918 10C0.0065918 4.47715 4.48374 0 10.0066 0C15.5294 0 20.0066 4.47715 20.0066 10C20.0066 15.5228 15.5294 20 10.0066 20ZM10.0066 2C5.58831 2 2.00659 5.58172 2.00659 10C2.00659 14.4183 5.58831 18 10.0066 18C14.4249 18 18.0066 14.4183 18.0066 10C18.0066 5.58172 14.4249 2 10.0066 2ZM10.007 4.75736C10.5593 4.75736 11.007 5.20507 11.007 5.75736V9H14.2492C14.8015 9 15.2492 9.44772 15.2492 10C15.2492 10.5523 14.8015 11 14.2492 11H11.007V14.2426C11.007 14.7949 10.5593 15.2426 10.007 15.2426C9.45476 15.2426 9.00704 14.7949 9.00704 14.2426V11H5.76395C5.21167 11 4.76395 10.5523 4.76395 10C4.76395 9.44771 5.21167 9 5.76395 9H9.00704V5.75736C9.00704 5.20507 9.45476 4.75736 10.007 4.75736Z" fill="#FE8360"/>
</svg>
