<svg width="34" height="34" viewBox="0 0 34 34" fill="none" xmlns="http://www.w3.org/2000/svg">
<path fill-rule="evenodd" clip-rule="evenodd" d="M18.6666 30.2303V28.6668C18.6666 27.7464 17.9204 27.0002 16.9999 27.0002C16.0794 27.0002 15.3333 27.7464 15.3333 28.6668V30.2303C9.30206 29.4783 4.52182 24.698 3.76974 18.6668H5.33325C6.25373 18.6668 6.99992 17.9206 6.99992 17.0002C6.99992 16.0797 6.25373 15.3335 5.33325 15.3335H3.76974C4.52182 9.3023 9.30206 4.52207 15.3333 3.76999V5.3335C15.3333 6.25397 16.0794 7.00016 16.9999 7.00016C17.9204 7.00016 18.6666 6.25397 18.6666 5.3335V3.76999C24.6978 4.52207 29.478 9.3023 30.2301 15.3335H28.6666C27.7461 15.3335 26.9999 16.0797 26.9999 17.0002C26.9999 17.9206 27.7461 18.6668 28.6666 18.6668H30.2301C29.478 24.698 24.6978 29.4783 18.6666 30.2303ZM33.6666 17.0002C33.6666 26.2049 26.2047 33.6668 16.9999 33.6668C7.79517 33.6668 0.333252 26.2049 0.333252 17.0002C0.333252 7.79542 7.79517 0.333496 16.9999 0.333496C26.2047 0.333496 33.6666 7.79542 33.6666 17.0002ZM16.9999 10.3335C16.0794 10.3335 15.3333 11.0797 15.3333 12.0002V15.3335H11.9999C11.0794 15.3335 10.3333 16.0797 10.3333 17.0002C10.3333 17.9206 11.0794 18.6668 11.9999 18.6668H15.3333V22.0002C15.3333 22.9206 16.0794 23.6668 16.9999 23.6668C17.9204 23.6668 18.6666 22.9206 18.6666 22.0002V18.6668H21.9999C22.9204 18.6668 23.6666 17.9206 23.6666 17.0002C23.6666 16.0797 22.9204 15.3335 21.9999 15.3335H18.6666V12.0002C18.6666 11.0797 17.9204 10.3335 16.9999 10.3335Z" fill="#FE8360"/>
</svg>
