<svg width="28" height="28" viewBox="0 0 28 28" fill="none" xmlns="http://www.w3.org/2000/svg">
<path fill-rule="evenodd" clip-rule="evenodd" d="M9.00008 5.6665C10.2317 5.6665 11.3852 6.00046 12.3752 6.58275C12.7481 3.25411 15.5719 0.666504 19.0001 0.666504C22.682 0.666504 25.6667 3.65127 25.6667 7.33317C25.6667 9.19828 24.9008 10.8845 23.6664 12.0945C25.8791 13.5927 27.3334 16.1264 27.3334 18.9998V20.9046V25.6665C27.3334 26.587 26.5872 27.3332 25.6667 27.3332C24.7463 27.3332 24.0001 26.587 24.0001 25.6665V20.9046V18.9998C24.0001 16.2384 21.7615 13.9998 19.0001 13.9998C16.2387 13.9998 14.0001 16.2384 14.0001 18.9998V20.9046V25.6665C14.0001 26.587 13.2539 27.3332 12.3334 27.3332C11.4129 27.3332 10.6667 26.587 10.6667 25.6665V20.9046V18.9998L9.00008 18.9998H6.61913C5.17267 18.9998 4.00008 20.1724 4.00008 21.6189V25.6665C4.00008 26.587 3.25389 27.3332 2.33341 27.3332C1.41294 27.3332 0.666748 26.587 0.666748 25.6665V21.6189C0.666748 19.3806 1.90214 17.4309 3.72826 16.4144C2.85389 15.2866 2.33341 13.8707 2.33341 12.3332C2.33341 8.65127 5.31818 5.6665 9.00008 5.6665ZM9.00008 15.6665C10.841 15.6665 12.3334 14.1741 12.3334 12.3332C12.3334 10.4922 10.841 8.99984 9.00008 8.99984C7.15913 8.99984 5.66675 10.4922 5.66675 12.3332C5.66675 14.1741 7.15913 15.6665 9.00008 15.6665ZM19.0001 10.6665C20.841 10.6665 22.3334 9.17412 22.3334 7.33317C22.3334 5.49222 20.841 3.99984 19.0001 3.99984C17.1591 3.99984 15.6667 5.49222 15.6667 7.33317C15.6667 9.17412 17.1591 10.6665 19.0001 10.6665Z" fill="#FE8360"/>
</svg>
