<svg width="34" height="34" viewBox="0 0 34 34" fill="none" xmlns="http://www.w3.org/2000/svg">
<path fill-rule="evenodd" clip-rule="evenodd" d="M30.3391 16.9972C30.3391 24.361 24.3696 30.3306 17.0058 30.3306C9.64198 30.3306 3.67244 24.361 3.67244 16.9972C3.67244 9.63344 9.64198 3.6639 17.0058 3.6639C24.3696 3.6639 30.3391 9.63344 30.3391 16.9972ZM27.5537 29.9021C24.6805 32.2533 21.0079 33.6639 17.0058 33.6639C13.0037 33.6639 9.33101 32.2533 6.45789 29.9021L3.18429 33.1757C2.53342 33.8266 1.47814 33.8266 0.827267 33.1757C0.176393 32.5249 0.176393 31.4696 0.827267 30.8187L4.10087 27.5451C1.74972 24.672 0.339111 20.9994 0.339111 16.9972C0.339111 7.79249 7.80103 0.330566 17.0058 0.330566C26.2105 0.330566 33.6724 7.79249 33.6724 16.9972C33.6724 20.9994 32.2618 24.672 29.9107 27.5451L33.1843 30.8187C33.8352 31.4696 33.8352 32.5249 33.1843 33.1757C32.5334 33.8266 31.4781 33.8266 30.8273 33.1757L27.5537 29.9021ZM22.0058 16.9972C22.0058 19.7587 19.7672 21.9972 17.0058 21.9972C14.2444 21.9972 12.0058 19.7587 12.0058 16.9972C12.0058 14.2358 14.2444 11.9972 17.0058 11.9972C19.7672 11.9972 22.0058 14.2358 22.0058 16.9972ZM25.3391 16.9972C25.3391 21.5996 21.6082 25.3306 17.0058 25.3306C12.4034 25.3306 8.67245 21.5996 8.67245 16.9972C8.67245 12.3949 12.4034 8.6639 17.0058 8.6639C21.6082 8.6639 25.3391 12.3949 25.3391 16.9972Z" fill="#FE8360"/>
</svg>
