<svg width="19" height="8" viewBox="0 0 19 8" fill="none" xmlns="http://www.w3.org/2000/svg">
<path d="M13.9024 7.42176L17.9025 3.95527C17.9719 3.89012 18.0066 3.812 18.0066 3.72079C18.0066 3.63604 17.9719 3.56124 17.9025 3.49619L13.9024 0.0786409C13.7911 -0.00600531 13.6697 -0.022319 13.5378 0.0297C13.4058 0.0818216 13.3399 0.176181 13.3399 0.31288V2.50014L0.339558 2.50014C0.242397 2.50014 0.162493 2.52938 0.100067 2.58803C0.0377865 2.64662 0.0065918 2.72138 0.0065918 2.81263V4.68736C0.0065918 4.77865 0.0377865 4.85354 0.100067 4.91182C0.162531 4.97034 0.242397 4.99982 0.339558 4.99982L13.3399 4.99982V7.18708C13.3399 7.31725 13.4059 7.41154 13.5378 7.47005C13.6699 7.52238 13.7913 7.50603 13.9024 7.42176Z" fill="#FE8360"/>
</svg>
