<svg width="6" height="14" viewBox="0 0 6 14" fill="none" xmlns="http://www.w3.org/2000/svg">
<path d="M5.93741 3.19211L3.16422 0.0809607C3.11209 0.0269585 3.0496 0 2.97663 0C2.90883 0 2.849 0.0269585 2.79696 0.0809607L0.0629128 3.19214C-0.00480425 3.27867 -0.0178552 3.37311 0.02376 3.47575C0.0654573 3.57836 0.140945 3.62967 0.250304 3.62967L2.00011 3.62967L2.00011 13.741C2.00011 13.8165 2.0235 13.8787 2.07043 13.9272C2.1173 13.9757 2.17711 13.9999 2.2501 13.9999H3.74989C3.82292 13.9999 3.88284 13.9757 3.92946 13.9272C3.97627 13.8786 3.99986 13.8165 3.99986 13.741L3.99986 3.62967L5.74966 3.62967C5.8538 3.62967 5.92923 3.57833 5.97604 3.47575C6.01791 3.37299 6.00483 3.27855 5.93741 3.19211Z" fill="#FE8360"/>
</svg>
