<svg width="34" height="30" viewBox="0 0 34 30" fill="none" xmlns="http://www.w3.org/2000/svg">
<path fill-rule="evenodd" clip-rule="evenodd" d="M8.66634 0C4.74293 0 2.51367 1.08432 1.43447 1.86175C0.599585 2.46318 0.333008 3.35483 0.333008 4.06271V28.4211C0.333008 28.9914 0.657662 29.5174 1.18231 29.7971C1.70671 30.0767 2.34943 30.0667 2.8639 29.7711L2.86464 29.7707L2.8774 29.7637C2.89393 29.7545 2.92249 29.739 2.96247 29.7178C3.0425 29.6756 3.16791 29.6114 3.3339 29.5323C3.66658 29.374 4.15812 29.1582 4.7705 28.9415C6.00518 28.5045 7.67639 28.0827 9.49967 28.0827C11.323 28.0827 12.9942 28.5045 14.2289 28.9415C14.8412 29.1582 15.3328 29.374 15.6654 29.5323C15.8314 29.6114 15.9569 29.6756 16.0369 29.7178C16.0769 29.739 16.1054 29.7545 16.1219 29.7637L16.1345 29.7706C16.141 29.7744 16.1475 29.778 16.1541 29.7817C16.2133 29.8147 16.2742 29.8441 16.3364 29.8696C16.8107 30.0646 17.359 30.0413 17.817 29.7971C17.8265 29.792 17.8359 29.7869 17.8453 29.7817C17.8518 29.778 17.8583 29.7744 17.8648 29.7706L17.8774 29.7637C17.8939 29.7545 17.9225 29.739 17.9625 29.7178C18.0425 29.6756 18.1679 29.6114 18.3339 29.5323C18.6666 29.374 19.1581 29.1582 19.7705 28.9415C21.0052 28.5045 22.6764 28.0827 24.4997 28.0827C26.323 28.0827 27.9942 28.5045 29.2289 28.9415C29.8412 29.1582 30.3328 29.374 30.6654 29.5323C30.8314 29.6114 30.9568 29.6756 31.0369 29.7178C31.0506 29.7251 31.063 29.7317 31.074 29.7376C31.095 29.7489 31.1111 29.7577 31.1219 29.7637L31.1347 29.7707L31.1354 29.7711C31.6499 30.0667 32.2926 30.0767 32.817 29.7971C33.3417 29.5174 33.6663 28.9914 33.6663 28.4211V4.06271C33.6663 3.35483 33.3998 2.46318 32.5649 1.86175C31.4857 1.08432 29.2564 0 25.333 0C21.4305 0 18.4539 1.14582 17.0387 1.81881C17.0256 1.82504 17.0126 1.83134 16.9997 1.83771C16.9867 1.83134 16.9737 1.82504 16.9606 1.81881C15.5454 1.14582 12.5688 0 8.66634 0ZM18.6663 4.57921V25.9613C20.136 25.4467 22.1892 24.9248 24.4997 24.9248C26.8101 24.9248 28.8634 25.4467 30.333 25.9613V4.23338C29.6905 3.83888 28.1778 3.15789 25.333 3.15789C22.2316 3.15789 19.8399 4.03839 18.6663 4.57921ZM15.333 4.57921C14.1595 4.03839 11.7678 3.15789 8.66634 3.15789C5.82153 3.15789 4.30883 3.83888 3.66634 4.23338V25.9613C5.13599 25.4467 7.18923 24.9248 9.49967 24.9248C11.8101 24.9248 13.8634 25.4467 15.333 25.9613V4.57921Z" fill="#FE8360"/>
</svg>
