<svg width="13" height="12" viewBox="0 0 13 12" fill="none" xmlns="http://www.w3.org/2000/svg">
<path d="M6.21578 0.130868C4.3072 0.512205 2.7597 1.87072 2.19229 3.58674C1.80541 4.80225 1.90858 5.94627 2.32125 6.94728L3.714 5.66026C3.6882 5.46959 3.66241 5.27892 3.66241 5.08826C3.66241 2.89557 5.80312 1.17955 8.25332 1.63238C9.74924 1.89455 10.9357 3.01473 11.2452 4.39708C11.7094 6.66127 9.8524 8.63946 7.50536 8.63946C6.34474 8.63946 5.31308 8.16279 4.6167 7.42395C4.41037 7.20945 4.10087 7.18561 3.86874 7.37628L3.84295 7.40012L3.32712 7.87679L0 10.8798L1.21221 12L4.20404 9.2353C5.31308 9.97414 6.70582 10.3555 8.22753 10.1648C10.5746 9.87881 12.5089 8.16279 12.9216 5.99393C13.5664 2.39506 10.1361 -0.679475 6.21578 0.130868Z" fill="#00BFFE"/>
</svg>
