<svg width="20" height="20" viewBox="0 0 20 20" fill="none" xmlns="http://www.w3.org/2000/svg">
<path fill-rule="evenodd" clip-rule="evenodd" d="M11 1C11 0.447715 10.5523 0 10 0C9.44771 0 9 0.447715 9 1V2.06189C5.38128 2.51314 2.51314 5.38128 2.06189 9H1C0.447715 9 0 9.44771 0 10C0 10.5523 0.447715 11 1 11H2.06189C2.51314 14.6187 5.38128 17.4869 9 17.9381V19C9 19.5523 9.44771 20 10 20C10.5523 20 11 19.5523 11 19V17.9381C14.6187 17.4869 17.4869 14.6187 17.9381 11H19C19.5523 11 20 10.5523 20 10C20 9.44771 19.5523 9 19 9H17.9381C17.4869 5.38128 14.6187 2.51314 11 2.06189V1ZM14 9H15.917C15.4955 6.48749 13.5125 4.50448 11 4.08296V6C11 6.04201 10.9974 6.08342 10.9924 6.12407C12.4042 6.48445 13.5155 7.59585 13.8759 9.00762C13.9166 9.00259 13.958 9 14 9ZM13.8759 10.9924C13.5155 12.4042 12.4042 13.5155 10.9924 13.8759C10.9974 13.9166 11 13.958 11 14V15.917C13.5125 15.4955 15.4955 13.5125 15.917 11H14C13.958 11 13.9166 10.9974 13.8759 10.9924ZM9.00762 13.8759C7.59585 13.5155 6.48445 12.4042 6.12407 10.9924C6.08342 10.9974 6.04201 11 6 11H4.08296C4.50448 13.5125 6.4875 15.4955 9 15.917V14C9 13.958 9.00259 13.9166 9.00762 13.8759ZM6.12407 9.00762C6.48445 7.59585 7.59585 6.48445 9.00762 6.12407C9.00259 6.08342 9 6.04201 9 6V4.08296C6.4875 4.50448 4.50448 6.48749 4.08296 9H6C6.04201 9 6.08342 9.00259 6.12407 9.00762ZM10 12C8.89543 12 8 11.1046 8 10C8 8.89543 8.89543 8 10 8C11.1046 8 12 8.89543 12 10C12 11.1046 11.1046 12 10 12Z" fill="#FE8360"/>
</svg>
