<svg width="16" height="16" viewBox="0 0 16 16" fill="none" xmlns="http://www.w3.org/2000/svg">
<path fill-rule="evenodd" clip-rule="evenodd" d="M15.7396 1.51743C16.0868 1.1703 16.0868 0.607482 15.7396 0.26035C15.3925 -0.0867832 14.8297 -0.0867832 14.4826 0.26035L8 6.74292L1.51743 0.26035C1.1703 -0.0867832 0.607483 -0.0867832 0.260351 0.26035C-0.0867818 0.607482 -0.0867818 1.1703 0.260351 1.51743L6.74292 8L0.26035 14.4826C-0.0867832 14.8297 -0.0867832 15.3925 0.26035 15.7397C0.607482 16.0868 1.1703 16.0868 1.51743 15.7397L8 9.25708L14.4826 15.7397C14.8297 16.0868 15.3925 16.0868 15.7397 15.7397C16.0868 15.3925 16.0868 14.8297 15.7397 14.4826L9.25708 8L15.7396 1.51743Z" fill="#2D254D"/>
</svg>
