<svg width="16" height="16" viewBox="0 0 16 16" fill="none" xmlns="http://www.w3.org/2000/svg">
<circle cx="8" cy="8" r="8" fill="#F05555"/>
<path d="M4.21386 4.21386C3.92871 4.499 3.92871 4.9613 4.21386 5.24644L6.96742 8L4.21386 10.7536C3.92871 11.0387 3.92871 11.501 4.21386 11.7861C4.499 12.0713 4.9613 12.0713 5.24644 11.7861L8 9.03259L10.7536 11.7861C11.0387 12.0713 11.501 12.0713 11.7861 11.7861C12.0713 11.501 12.0713 11.0387 11.7861 10.7536L9.03259 8L11.7861 5.24644C12.0713 4.9613 12.0713 4.499 11.7861 4.21386C11.501 3.92871 11.0387 3.92872 10.7536 4.21386L8 6.96742L5.24644 4.21386C4.9613 3.92871 4.499 3.92871 4.21386 4.21386Z" fill="white"/>
</svg>
