<svg width="21" height="20" viewBox="0 0 21 20" fill="none" xmlns="http://www.w3.org/2000/svg">
<path fill-rule="evenodd" clip-rule="evenodd" d="M18.2798 1.72686C15.9775 -0.575621 12.2448 -0.575621 9.94252 1.72686L7.64018 4.02943L4.11461 2.85413C3.74441 2.73072 3.33626 2.82708 3.06032 3.10304L0.308223 5.8554C-0.0941145 6.25778 -0.0941149 6.91016 0.308223 7.31253L2.34628 9.35078C2.02641 9.81244 2.07207 10.4508 2.48324 10.862L3.02293 11.4017C2.29686 12.2108 2.32277 13.456 3.10065 14.234L5.7718 16.9054C6.54968 17.6833 7.79478 17.7092 8.60377 16.9831L9.14551 17.5249C9.55714 17.9366 10.1964 17.9819 10.6581 17.6608L12.6954 19.6982C13.0977 20.1006 13.75 20.1006 14.1524 19.6982L16.9045 16.9459C17.1804 16.6699 17.2768 16.2617 17.1534 15.8915L15.9785 12.3664L18.2798 10.0649C20.582 7.76241 20.582 4.02935 18.2798 1.72686ZM13.4239 17.5125L12.1284 16.2169L14.3495 13.9956L14.9972 15.939L13.4239 17.5125ZM3.7898 7.88017L6.01121 5.65855L4.06708 5.01045L2.49371 6.58397L3.7898 7.88017ZM11.3995 3.184C12.8971 1.68626 15.3252 1.68626 16.8228 3.184C18.3204 4.68173 18.3204 7.11003 16.8228 8.60776L9.983 15.4482L4.55974 10.0244L11.3995 3.184ZM12.6542 4.51977C13.4588 3.71502 14.7635 3.71502 15.5681 4.51977C16.3728 5.32452 16.3728 6.62928 15.5681 7.43403C14.7635 8.23879 13.4588 8.23879 12.6542 7.43403C11.8495 6.62928 11.8495 5.32452 12.6542 4.51977ZM11.3988 10.0649C11.8011 9.66251 11.8011 9.01013 11.3988 8.60775C10.9964 8.20538 10.3441 8.20538 9.94177 8.60775L8.22171 10.328C7.81937 10.7304 7.81937 11.3827 8.22171 11.7851C8.62405 12.1875 9.27637 12.1875 9.67871 11.7851L11.3988 10.0649Z" fill="#FE8360"/>
</svg>
