<svg width="16" height="16" viewBox="0 0 16 16" fill="none" xmlns="http://www.w3.org/2000/svg">
<path fill-rule="evenodd" clip-rule="evenodd" d="M2.00024 1.56425C1.77904 1.56425 1.60024 1.73929 1.60024 1.95498V8V14.0447C1.60024 14.2607 1.77933 14.4358 2.00024 14.4358H10.1065C10.2687 14.4358 10.4002 14.3072 10.4002 14.1486V2.73743C10.4002 2.31759 10.4969 1.91982 10.6697 1.56425H2.00024ZM12.8002 0.0277219V0H2.00024C0.895969 0 0.000244141 0.874802 0.000244141 1.95498V8V14.0447C0.000244141 15.1246 0.895674 16 2.00024 16H10.1065C11.1524 16 12.0002 15.1711 12.0002 14.1486V5.47486H15.1606C15.6243 5.47486 16.0002 5.10736 16.0002 4.65402V2.73743C16.0002 1.22559 14.7466 0 13.2002 0C13.0644 0 12.9309 0.00945272 12.8002 0.0277219ZM14.4002 3.91061V2.73743C14.4002 2.0895 13.863 1.56425 13.2002 1.56425C12.5375 1.56425 12.0002 2.0895 12.0002 2.73743V3.91061H14.4002ZM3.20024 8.60335C3.20024 8.1714 3.55842 7.82123 4.00024 7.82123H8.00024C8.44207 7.82123 8.80024 8.1714 8.80024 8.60335C8.80024 9.03531 8.44207 9.38547 8.00024 9.38547H4.00024C3.55842 9.38547 3.20024 9.03531 3.20024 8.60335ZM4.00024 3.91061C3.55842 3.91061 3.20024 4.26078 3.20024 4.69274C3.20024 5.12469 3.55842 5.47486 4.00024 5.47486H8.00024C8.44207 5.47486 8.80024 5.12469 8.80024 4.69274C8.80024 4.26078 8.44207 3.91061 8.00024 3.91061H4.00024Z" fill="#FE8360"/>
</svg>
