<svg width="24" height="24" viewBox="0 0 24 24" fill="none" xmlns="http://www.w3.org/2000/svg">
<path fill-rule="evenodd" clip-rule="evenodd" d="M4 3C2.89543 3 2 3.89543 2 5V16C2 17.1046 2.89543 18 4 18H9L7.4 19.2C6.95817 19.5314 6.86863 20.1582 7.2 20.6C7.53137 21.0418 8.15817 21.1314 8.6 20.8L12 18.25L15.4 20.8C15.8418 21.1314 16.4686 21.0418 16.8 20.6C17.1314 20.1582 17.0418 19.5314 16.6 19.2L15 18H20C21.1046 18 22 17.1046 22 16V5C22 3.89543 21.1046 3 20 3H4ZM11.9899 16H12.0116H18H20V14V7V5H18H6H4V7V14V16H6H11.9884H11.9899ZM16.3598 11.2682C16.7841 11.6218 17.4147 11.5645 17.7682 11.1402C18.1218 10.7159 18.0645 10.0853 17.6402 9.73178L14.6402 7.23178C14.4055 7.0362 14.0943 6.95864 13.7953 7.02118C13.4962 7.08373 13.2422 7.27954 13.1056 7.55279L11.1702 11.4235L9.14018 9.73178C8.91582 9.54481 8.62092 9.46526 8.33297 9.51405C8.04501 9.56283 7.79277 9.73506 7.64251 9.9855L6.14251 12.4855C5.85836 12.9591 6.01192 13.5733 6.4855 13.8575C6.95908 14.1416 7.57334 13.9881 7.85749 13.5145L8.75678 12.0157L10.8598 13.7682C11.0945 13.9638 11.4057 14.0414 11.7047 13.9788C12.0038 13.9163 12.2578 13.7205 12.3944 13.4472L14.3298 9.57652L16.3598 11.2682Z" fill="#FE8360"/>
</svg>
