<svg width="20" height="20" viewBox="0 0 20 20" fill="none" xmlns="http://www.w3.org/2000/svg">
<path fill-rule="evenodd" clip-rule="evenodd" d="M12.6316 7.36842V2.17081C15.3144 2.56422 17.4358 4.68556 17.8292 7.36842H12.6316ZM11.7293 0C11.0649 0 10.5263 0.538606 10.5263 1.20301V7.36842C10.5263 8.53113 11.4689 9.47368 12.6316 9.47368H18.797C19.4614 9.47368 20 8.93508 20 8.27068C20 3.70291 16.2971 0 11.7293 0ZM9.61014 17.8947H8.94737C5.16858 17.8947 2.10526 14.8314 2.10526 11.0526V10.3899C2.10526 7.47381 4.12514 5.02952 6.84211 4.3798V10.0585C6.84211 11.7702 8.22976 13.1579 9.94152 13.1579H15.6202C14.9705 15.8749 12.5262 17.8947 9.61014 17.8947ZM8.94737 20H9.61014C14.1856 20 17.8947 16.2909 17.8947 11.7154C17.8947 11.3494 17.598 11.0526 17.232 11.0526H9.94152C9.39247 11.0526 8.94737 10.6075 8.94737 10.0585V2.76803C8.94737 2.40199 8.65064 2.10526 8.2846 2.10526C3.70914 2.10526 0 5.8144 0 10.3899V11.0526C0 15.9941 4.00587 20 8.94737 20Z" fill="#FE8360"/>
</svg>
