<svg width="36" height="30" viewBox="0 0 36 30" fill="none" xmlns="http://www.w3.org/2000/svg">
<path opacity="0.1" fill-rule="evenodd" clip-rule="evenodd" d="M25.3298 29.1671L24.1868 28.4588L23.6911 28.0121C21.9054 26.4667 19.9529 23.5045 20.473 17.8719C20.7772 13.4672 23.0486 6.87321 32.1391 0.450748C32.5756 0.150204 33.0859 0 33.596 0C34.3025 0 35.0041 0.28339 35.475 0.837202C36.2797 1.77747 36.0883 3.13404 35.0532 3.86385C27.6454 9.08846 25.6241 14.2101 25.266 17.7219C26.3109 17.1895 27.4933 16.8633 28.7736 16.8633C32.7622 16.8633 36 19.804 36 23.4317C36 27.0593 32.767 30 28.7736 30C27.871 30 27.0419 29.7983 26.2521 29.5149L26.2766 29.5664L25.4426 29.2187L25.369 29.1929L25.3298 29.1671ZM3.81387 28.4588L3.31344 28.0124C1.51781 26.4668 -0.434647 23.5046 0.0853806 17.8719C0.394554 13.4672 2.66097 6.87321 11.7564 0.450748C12.193 0.150204 12.7033 0 13.2134 0C13.9199 0 14.6215 0.28339 15.0924 0.837202C15.8971 1.77747 15.7106 3.13404 14.6705 3.86385C7.26281 9.08846 5.24151 14.2101 4.88834 17.7219C5.93318 17.1895 7.11555 16.8633 8.39594 16.8633C12.3942 16.8633 15.6223 19.804 15.6223 23.4317C15.6223 27.0593 12.3942 30 8.40582 30C7.50314 30 6.66915 29.7983 5.87931 29.5149L5.90385 29.5664L5.06986 29.2187L4.9913 29.1929L4.95209 29.1671L3.81387 28.4588Z" fill="#2D254D"/>
</svg>
