<svg width="14" height="16" viewBox="0 0 14 16" fill="none" xmlns="http://www.w3.org/2000/svg">
<path fill-rule="evenodd" clip-rule="evenodd" d="M4.24732 7.73145C4.05476 5.36309 5.11375 3.08288 7 1.7393C8.88625 3.08288 9.94524 5.36309 9.75268 7.73145L9.46329 11.2906L9.28608 11.9969H4.71392L4.53671 11.2906L4.24732 7.73145ZM2.97659 11.3842L2.6904 7.86443C2.6882 7.83731 2.68613 7.8102 2.68419 7.78311C2.18251 8.59199 1.69788 9.84546 1.56654 11.7559L2.97659 11.3842ZM2.88664 5.24994C3.38385 3.1402 4.68553 1.27787 6.56081 0.12468C6.83114 -0.0415587 7.16886 -0.0415611 7.43919 0.12468C9.31447 1.27787 10.6162 3.1402 11.1134 5.24994C11.4147 5.46704 11.779 5.78496 12.1471 6.23785C12.995 7.28125 13.8214 8.99003 13.9965 11.712C14.0675 12.8169 13.0507 13.5719 12.079 13.3158L10.8537 12.9928C10.7174 13.3494 10.3789 13.5981 9.98761 13.5981H10.1246V14.3988C10.1246 15.2831 9.42516 16 8.56231 16H5.43768C4.57484 16 3.87537 15.2831 3.87537 14.3988V13.5981H4.01239C3.62107 13.5981 3.28259 13.3494 3.1463 12.9928L1.92098 13.3158C0.949296 13.5719 -0.0675337 12.8169 0.0035212 11.712C0.178562 8.99003 1.00502 7.28125 1.85293 6.23785C2.22097 5.78496 2.58534 5.46704 2.88664 5.24994ZM12.4335 11.7559C12.3021 9.84546 11.8175 8.59199 11.3158 7.78311C11.3139 7.8102 11.3118 7.83731 11.3096 7.86443L11.0234 11.3842L12.4335 11.7559ZM8.56231 13.5981H5.43768V14.3988H8.56231V13.5981Z" fill="#FE8360"/>
</svg>
