<svg width="21" height="20" viewBox="0 0 21 20" fill="none" xmlns="http://www.w3.org/2000/svg">
<path fill-rule="evenodd" clip-rule="evenodd" d="M20.0065 7.5C20.0065 11.6421 16.6486 15 12.5065 15C10.7748 15 9.18026 14.4131 7.91079 13.4275C7.86298 13.5286 7.79724 13.6234 7.71358 13.7071L1.71358 19.7071C1.32305 20.0976 0.689887 20.0976 0.299363 19.7071C-0.0911613 19.3166 -0.0911614 18.6834 0.299363 18.2929L6.29936 12.2929C6.38303 12.2092 6.47783 12.1435 6.57899 12.0957C5.59332 10.8262 5.00647 9.23164 5.00647 7.5C5.00647 3.35786 8.36433 0 12.5065 0C16.6486 0 20.0065 3.35786 20.0065 7.5ZM18.0065 7.5C18.0065 4.46243 15.544 2 12.5065 2C9.4689 2 7.00647 4.46243 7.00647 7.5C7.00647 10.5376 9.4689 13 12.5065 13C15.544 13 18.0065 10.5376 18.0065 7.5Z" fill="#FE8360"/>
</svg>
