<svg width="20" height="18" viewBox="0 0 20 18" fill="none" xmlns="http://www.w3.org/2000/svg">
<path fill-rule="evenodd" clip-rule="evenodd" d="M17 18C18.6569 18 20 16.6569 20 15V3C20 1.34315 18.6569 0 17 0H10H6L2.99999 5.90084e-06C1.34314 9.04707e-06 0 1.34315 0 3.00001V5.5V9V15C0 16.6568 1.34314 18 3 18L17 18ZM17 2C17.5523 2 18 2.44772 18 3V3.99999H2V3.00001C2 2.44772 2.44771 2.00001 3 2.00001L6 2L10 2L17 2ZM18 5.99999H2L2 9L2 15C2 15.5523 2.44771 16 3 16H17C17.5523 16 18 15.5523 18 15V5.99999ZM10.628 7.01217C11.1735 7.09808 11.5461 7.61 11.4602 8.15556L10.5153 14.1556C10.4294 14.7011 9.91751 15.0737 9.37195 14.9878C8.82639 14.9019 8.45377 14.39 8.53969 13.8444L9.48457 7.84443C9.57049 7.29887 10.0824 6.92625 10.628 7.01217ZM7.11662 9.68679C7.49593 9.28536 7.47799 8.65244 7.07656 8.27314C6.67513 7.89383 6.04222 7.91177 5.66292 8.3132L3.77315 10.3132C3.40895 10.6986 3.40895 11.3013 3.77315 11.6868L5.66292 13.6868C6.04222 14.0882 6.67513 14.1062 7.07656 13.7268C7.47799 13.3475 7.49593 12.7146 7.11662 12.3132L5.87579 11L7.11662 9.68679ZM12.8834 9.68679C12.5041 9.28536 12.522 8.65244 12.9234 8.27314C13.3249 7.89383 13.9578 7.91177 14.3371 8.3132L16.2269 10.3132C16.591 10.6986 16.591 11.3013 16.2269 11.6868L14.3371 13.6868C13.9578 14.0882 13.3249 14.1062 12.9234 13.7268C12.522 13.3475 12.5041 12.7146 12.8834 12.3132L14.1242 11L12.8834 9.68679Z" fill="#FE8360"/>
</svg>
