<?xml version="1.0" encoding="utf-8"?><svg xmlns="http://www.w3.org/2000/svg" xmlns:xlink="http://www.w3.org/1999/xlink"><symbol viewBox="0 0 20 12" id="arrow-s-l" xmlns="http://www.w3.org/2000/svg"><path fill-rule="evenodd" clip-rule="evenodd" d="M6.804.3A1 1 0 005.39.286l-5.09 5a1 1 0 000 1.426l5.09 5a1 1 0 001.402-1.426L3.445 7H19a1 1 0 100-2H3.445l3.347-3.287A1 1 0 006.804.3z"/></symbol><symbol viewBox="0 0 20 12" id="arrow-s-r" xmlns="http://www.w3.org/2000/svg"><path fill-rule="evenodd" clip-rule="evenodd" d="M13.196 11.7a1 1 0 001.414.013l5.09-5a1 1 0 000-1.426l-5.09-5a1 1 0 00-1.402 1.426L16.555 5H1a1 1 0 100 2h15.555l-3.347 3.287a1 1 0 00-.012 1.414z"/></symbol><symbol viewBox="0 0 16 16" id="at-icon" xmlns="http://www.w3.org/2000/svg"><path d="M8.01 16c-2.437 0-4.324-.55-5.659-1.652C1.031 13.246.268 11.714.065 9.753.022 9.363 0 8.78 0 8c0-.793.022-1.357.065-1.693.13-1.209.508-2.29 1.132-3.244.624-.954 1.495-1.7 2.613-2.237C4.94.276 6.284 0 7.837 0c5.123 0 7.83 2.102 8.12 6.307.028.484.043.867.043 1.149 0 .55-.014 1.028-.043 1.43-.059.968-.378 1.714-.958 2.237-.58.524-1.314.786-2.199.786-.624 0-1.154-.114-1.59-.342-.42-.229-.732-.477-.935-.746a3.261 3.261 0 01-.98.927c-.406.242-1.008.363-1.807.363-1.088 0-1.951-.363-2.59-1.088-.624-.726-.936-1.733-.936-3.023s.312-2.297.936-3.023c.624-.739 1.473-1.108 2.547-1.108.943 0 1.676.316 2.199.947v-.302c0-.148.05-.262.152-.343a.525.525 0 01.37-.14h.87a.52.52 0 01.37.14.45.45 0 01.153.343v4.191c0 .497.109.873.327 1.129.232.255.537.383.914.383.464 0 .784-.148.958-.444.189-.309.29-.665.305-1.068.029-.403.043-.82.043-1.25a19.8 19.8 0 00-.043-1.047c-.117-1.612-.654-2.801-1.611-3.567-.944-.779-2.482-1.168-4.615-1.168-1.77 0-3.15.416-4.136 1.249-.973.833-1.553 1.995-1.742 3.486-.043.336-.065.867-.065 1.592 0 .712.022 1.263.065 1.652.174 1.505.762 2.66 1.763 3.466 1.016.806 2.446 1.21 4.289 1.21.9 0 1.64-.061 2.22-.182.58-.12 1.023-.262 1.328-.423.305-.148.624-.343.958-.585.13-.094.232-.16.305-.201a.777.777 0 01.326-.06h1.198a.53.53 0 01.37.14.39.39 0 01.152.323c0 .067-.043.168-.13.302C13.213 15.214 10.97 16 8.01 16zm-.26-5.582c.667 0 1.146-.201 1.436-.604.305-.403.458-1.008.458-1.814s-.153-1.41-.458-1.814c-.29-.416-.769-.624-1.436-.624-1.263 0-1.894.812-1.894 2.438 0 .739.16 1.33.479 1.773.319.43.79.645 1.415.645z"/></symbol><symbol viewBox="0 0 16 15" id="bag" xmlns="http://www.w3.org/2000/svg"><path fill-rule="evenodd" clip-rule="evenodd" d="M3.2 4.8h-.8a.8.8 0 00-.8.8V12a.8.8 0 00.8.8h.8v-8zm8 8v-8H4.8v8h6.4zm2.4 0h-.8v-8h.8a.8.8 0 01.8.8V12a.8.8 0 01-.8.8zm-2.4-9.6h2.4A2.4 2.4 0 0116 5.6V12a2.4 2.4 0 01-2.4 2.4H2.4A2.4 2.4 0 010 12V5.6a2.4 2.4 0 012.4-2.4h2.4v-.8A2.4 2.4 0 017.2 0h1.6a2.4 2.4 0 012.4 2.4v.8zm-1.6 0H6.4v-.8a.8.8 0 01.8-.8h1.6a.8.8 0 01.8.8v.8z"/></symbol><symbol viewBox="0 0 21 20" id="login-icon" xmlns="http://www.w3.org/2000/svg"><path fill-rule="evenodd" clip-rule="evenodd" d="M10.006 20c-5.522 0-10-4.477-10-10s4.478-10 10-10c5.523 0 10 4.477 10 10s-4.477 10-10 10zm0-18a8 8 0 00-5 14.245v-.388c0-1.684.858-3.169 2.16-4.04a4 4 0 115.68 0 4.852 4.852 0 012.16 4.04v.388a8 8 0 00-5-14.245zm3 15.419v-1.562A2.857 2.857 0 0010.15 13h-.286a2.857 2.857 0 00-2.857 2.857v1.562c.927.375 1.94.581 3 .581a7.975 7.975 0 003-.581zm-3-6.419a2 2 0 100-4 2 2 0 000 4z"/></symbol><symbol viewBox="0 0 18 16" id="mail-icon" xmlns="http://www.w3.org/2000/svg"><path d="M13.591 5.55l-3.456 2.81a1.786 1.786 0 01-2.224 0L4.426 5.55"/><path clip-rule="evenodd" d="M12.818 15c2.366.007 3.96-1.937 3.96-4.326V5.332c0-2.388-1.594-4.332-3.96-4.332H5.182c-2.365 0-3.96 1.944-3.96 4.332v5.342c0 2.389 1.595 4.333 3.96 4.326h7.636z"/></symbol><symbol viewBox="0 0 20 20" id="play-icon" xmlns="http://www.w3.org/2000/svg"><path fill-rule="evenodd" clip-rule="evenodd" d="M0 10c0 5.523 4.477 10 10 10s10-4.477 10-10S15.523 0 10 0 0 4.477 0 10zm2 0a8 8 0 1116 0 8 8 0 01-16 0zm6.528-2.882a1 1 0 011.027.05l3 2a1 1 0 010 1.664l-3 2A1 1 0 018 12V8a1 1 0 01.528-.882z"/></symbol></svg>