<svg width="141" height="40" viewBox="0 0 141 40" fill="none" xmlns="http://www.w3.org/2000/svg">
<path d="M16.1122 21.6395C15.3206 23.4405 13.7376 24.4565 11.782 24.4565C9.12804 24.4565 7.12592 22.3322 7.12592 19.6075C7.12592 16.8828 9.12804 14.8046 11.782 14.8046C13.7376 14.8046 15.3672 15.8206 16.1122 17.5293H19.1386C18.3005 14.1581 15.4603 11.9414 11.782 11.9414C7.35873 11.9414 4.00635 15.2203 4.00635 19.6075C4.00635 23.9947 7.35873 27.3659 11.782 27.3659C15.4603 27.3659 18.3471 25.103 19.1852 21.6395H16.1122Z" fill="#00BFFE"/>
<path d="M52.756 11.9414C50.5676 11.9414 48.7518 12.865 47.6343 14.3428L47.029 12.3109H44.8872V27.0427H47.9602V19.0995C47.9602 16.5133 49.6364 14.6199 51.9645 14.6199C54.1994 14.6199 55.3634 16.0515 55.3634 18.73V26.9965H58.4364V18.1297C58.3899 14.5276 56.2481 11.9414 52.756 11.9414Z" fill="#00BFFE"/>
<path d="M68.2136 24.4565C65.5597 24.4565 63.5576 22.3322 63.5576 19.6075C63.5576 16.8828 65.5597 14.8046 68.2136 14.8046C70.1692 14.8046 71.7988 15.8206 72.5438 17.5293H75.5703C74.7322 14.1581 71.892 11.9414 68.2136 11.9414C63.7904 11.9414 60.438 15.2665 60.438 19.6537C60.438 24.0409 63.7904 27.4121 68.2136 27.4121C71.892 27.4121 74.7787 25.1492 75.6168 21.6856H72.5438C71.7057 23.4405 70.1692 24.4565 68.2136 24.4565Z" fill="#00BFFE"/>
<path d="M87.9086 20.3464C87.9086 22.8863 86.5118 24.4565 84.2303 24.4565C81.9488 24.4565 80.552 22.8863 80.552 20.3464V12.2646H77.479V20.762C77.479 24.7336 80.133 27.3197 84.2303 27.3197C88.3277 27.3197 90.9816 24.6874 90.9816 20.762V12.2646H87.9086V20.3464Z" fill="#00BFFE"/>
<path d="M96.244 14.2962L95.7318 12.2642H93.6831V26.996H96.7561V19.1452C96.7561 16.4667 98.0133 15.0351 100.528 15.0351H102.157V12.1719H100.853C98.7582 12.2181 97.3148 12.9108 96.244 14.2962Z" fill="#00BFFE"/>
<path d="M106.3 18.222C106.813 16.0515 108.489 14.6661 110.77 14.6661C113.052 14.6661 114.728 16.0053 115.287 18.222H106.3ZM110.77 11.9414C106.44 11.9414 103.134 15.2665 103.134 19.6537C103.134 24.0409 106.44 27.3659 110.77 27.3659C114.076 27.3659 116.777 25.4725 117.987 22.3784H114.774C113.983 23.7176 112.54 24.5489 110.77 24.5489C108.349 24.5489 106.626 23.0711 106.207 20.7158H118.267C118.313 20.3926 118.313 20.0693 118.313 19.6998C118.36 15.405 115.333 11.9414 110.77 11.9414Z" fill="#00BFFE"/>
<path d="M128.278 24.4565C125.484 24.4565 123.435 22.3783 123.435 19.6075C123.435 16.8366 125.484 14.7584 128.278 14.7584C131.071 14.7584 133.12 16.8366 133.12 19.6075C133.167 22.3783 131.071 24.4565 128.278 24.4565ZM132.934 7V13.6501C131.63 12.5879 129.954 11.9414 128.045 11.9414C123.575 11.9414 120.316 15.2202 120.316 19.6536C120.316 24.087 123.529 27.3659 128.045 27.3659C130.14 27.3659 131.956 26.627 133.306 25.3339L133.679 26.9964H136.007V7H132.934Z" fill="#00BFFE"/>
<path d="M29.6611 10.0016C26.2156 10.7405 23.422 13.3728 22.3976 16.6979C21.6992 19.0531 21.8854 21.2698 22.6304 23.2094L25.1447 20.7157C25.0981 20.3462 25.0516 19.9768 25.0516 19.6073C25.0516 15.3586 28.9161 12.0336 33.3394 12.911C36.0399 13.419 38.1817 15.5895 38.7405 18.2681C39.5786 22.6553 36.2262 26.4883 31.9891 26.4883C29.8939 26.4883 28.0315 25.5647 26.7743 24.1331C26.4018 23.7174 25.8431 23.6713 25.4241 24.0407L25.3775 24.0869L24.4463 25.0105L18.4399 30.8293L20.6283 32.9998L26.0294 27.6428C28.0315 29.0744 30.5458 29.8133 33.2929 29.4439C37.5299 28.8897 41.022 25.5647 41.7669 21.3622C42.9309 14.3888 36.7384 8.43146 29.6611 10.0016Z" fill="#00BFFE"/>
</svg>
