<svg width="1180" height="800" viewBox="0 0 1180 800" fill="none" xmlns="http://www.w3.org/2000/svg">
<ellipse cx="592" cy="426.5" rx="298" ry="297.5" fill="#0B1C3C"/>
<path d="M947.743 718.384L386.854 79.8492L837.871 101.792L432.576 793.097L924.523 558.274L664.054 782.337L158.49 569.095L1086.14 65.7874L31.9409 231.029L947.743 718.384Z" stroke="#08142D"/>
<circle cx="34.5" cy="227.5" r="18.5" fill="url(#paint0_linear)"/>
<circle cx="34.5" cy="227.5" r="26.5" stroke="url(#paint1_linear)" stroke-opacity="0.1" stroke-width="16"/>
<circle cx="931.5" cy="712.5" r="18.5" fill="url(#paint2_linear)"/>
<circle cx="931.5" cy="712.5" r="26.5" stroke="url(#paint3_linear)" stroke-opacity="0.1" stroke-width="16"/>
<ellipse cx="1087.5" cy="65" rx="8.5" ry="8" fill="url(#paint4_linear)"/>
<path d="M1087.5 81C1096.15 81 1104 74.2865 1104 65C1104 55.7135 1096.15 49 1087.5 49C1078.85 49 1071 55.7135 1071 65C1071 74.2865 1078.85 81 1087.5 81Z" stroke="url(#paint5_linear)" stroke-opacity="0.1" stroke-width="16"/>
<defs>
<linearGradient id="paint0_linear" x1="25.7054" y1="210.138" x2="42.4408" y2="244.207" gradientUnits="userSpaceOnUse">
<stop stop-color="#304B80"/>
<stop offset="1" stop-color="#07142C"/>
<stop offset="1" stop-color="#2F518E"/>
</linearGradient>
<linearGradient id="paint1_linear" x1="49.7415" y1="246" x2="-10.9441" y2="171.93" gradientUnits="userSpaceOnUse">
<stop/>
<stop offset="1" stop-color="#01C0FF"/>
</linearGradient>
<linearGradient id="paint2_linear" x1="922.705" y1="695.138" x2="939.441" y2="729.207" gradientUnits="userSpaceOnUse">
<stop stop-color="#304B80"/>
<stop offset="1" stop-color="#07142C"/>
<stop offset="1" stop-color="#2F518E"/>
</linearGradient>
<linearGradient id="paint3_linear" x1="946.741" y1="731" x2="886.056" y2="656.93" gradientUnits="userSpaceOnUse">
<stop/>
<stop offset="1" stop-color="#01C0FF"/>
</linearGradient>
<linearGradient id="paint4_linear" x1="1083.46" y1="57.4923" x2="1090.43" y2="72.5591" gradientUnits="userSpaceOnUse">
<stop stop-color="#304B80"/>
<stop offset="1" stop-color="#07142C"/>
<stop offset="1" stop-color="#2F518E"/>
</linearGradient>
<linearGradient id="paint5_linear" x1="1094.5" y1="73" x2="1068.62" y2="39.4301" gradientUnits="userSpaceOnUse">
<stop/>
<stop offset="1" stop-color="#01C0FF"/>
</linearGradient>
</defs>
</svg>
