<svg width="93" height="86" viewBox="0 0 93 86" fill="none" xmlns="http://www.w3.org/2000/svg">
<path d="M32.9393 77.3415C33.005 77.3415 33.1365 77.3415 33.2022 77.3415C33.6622 77.3415 34.0565 77.3415 34.5165 77.407C35.5022 77.5379 36.2908 77.865 37.0136 78.2576C37.0136 78.1268 36.9479 78.0613 36.9479 77.9959C36.685 76.6218 35.6993 74.2661 35.6993 74.2661C35.6993 74.2661 37.145 75.6402 37.7365 77.407C37.8679 77.865 38.065 78.4539 38.1965 79.1083C38.6565 79.5009 38.985 79.8935 39.2479 80.2861C39.3136 78.5848 39.1165 76.1637 38.065 73.4154C36.3565 68.9659 31.9536 68.2461 31.9536 68.2461C31.9536 68.2461 32.8736 71.5833 32.9393 72.892C33.005 74.0044 32.6765 75.4439 32.9393 77.3415Z" fill="#787878"/>
<path d="M33.2021 77.9307C33.5964 77.9307 34.0564 77.9307 34.4506 77.9961C37.8021 78.4541 39.2478 81.2678 39.3135 81.3987L39.4449 81.6605L39.1821 81.7259C39.0506 81.7259 36.2906 82.3802 34.5164 82.3148C33.9249 82.3148 32.6106 82.0531 31.8878 81.8568C32.2821 82.4457 33.4649 83.1 34.5821 83.1655C35.9621 83.2309 39.3135 82.9037 39.3135 82.9037H40.0364L39.3792 83.2963C39.2478 83.3618 36.7506 85.0631 32.5449 85.0631C31.8221 85.0631 31.1649 84.9976 30.4421 84.9322C25.9078 84.3433 24.0021 79.8937 23.9364 79.8283L23.8049 79.5665L24.0678 79.5011C24.0678 79.5011 27.1564 79.1085 28.3392 78.9122C28.6678 78.8468 28.9964 78.7159 29.4564 78.6504C30.5735 78.2578 31.7564 77.9307 33.2021 77.9307Z" fill="#787878"/>
<path d="M39.6421 80.6787L40.6278 81.5948L39.1821 82.2491C39.1821 82.2491 42.9936 82.2491 43.1907 81.7257C43.3221 81.2676 41.6793 81.6602 39.6421 80.6787Z" fill="#787878"/>
<path d="M20.5193 69.6203C20.585 69.6203 20.7164 69.6858 20.7821 69.6858C21.1764 69.8166 21.5707 70.013 21.965 70.2093C22.8193 70.6673 23.4764 71.2562 23.9364 71.8451C23.9364 71.7797 23.9364 71.6488 24.0021 71.5834C24.1993 70.2093 24.0021 67.7227 24.0021 67.7227C24.0021 67.7227 24.9221 69.4895 24.8564 71.3217C24.8564 71.7797 24.7907 72.3686 24.725 73.023C24.9879 73.5464 25.185 74.0699 25.3164 74.4625C25.9079 72.9575 26.4993 70.6673 26.3679 67.7882C26.1707 63.1423 22.3593 60.8521 22.3593 60.8521C22.3593 60.8521 22.1621 64.1892 21.8336 65.4325C21.6364 66.5449 20.9136 67.7882 20.5193 69.6203Z" fill="#787878"/>
<path d="M20.585 70.2091C20.9793 70.34 21.3736 70.5363 21.7022 70.7326C24.5936 72.303 25.0536 75.3785 25.0536 75.5094L25.1193 75.7711L24.8564 75.7057C24.725 75.7057 22.0307 75.3131 20.3879 74.5933C19.8622 74.3315 18.745 73.6772 18.1536 73.2191C18.285 73.8735 19.205 74.9204 20.2564 75.3785C21.4393 75.902 24.6593 76.8181 24.6593 76.8181L25.3164 77.0798L24.5936 77.2107C24.4622 77.2107 21.6364 77.865 17.825 76.4255C17.1679 76.1637 16.5764 75.902 15.9193 75.5748C11.9764 73.4154 11.5822 68.7041 11.5822 68.6387V68.377L11.845 68.4424C11.845 68.4424 14.7364 69.1622 15.9193 69.3585C16.2479 69.4239 16.5764 69.4239 17.0364 69.4893C18.0879 69.5548 19.2707 69.6857 20.585 70.2091Z" fill="#787878"/>
<path d="M25.5793 74.9858L26.2364 76.2291L24.725 76.2945C24.725 76.2945 28.2078 77.6032 28.5364 77.2106C28.7993 76.8834 27.1564 76.6217 25.5793 74.9858Z" fill="#787878"/>
<path d="M11.3192 57.9078C11.3849 57.9732 11.4506 58.0387 11.5164 58.1041C11.8449 58.3659 12.1078 58.693 12.4364 59.0202C13.0935 59.74 13.4878 60.5252 13.7506 61.245C13.8164 61.1796 13.8164 61.0487 13.8821 60.9833C14.4735 59.8054 15.1306 57.5152 15.1306 57.5152C15.1306 57.5152 15.3935 59.4128 14.8021 61.1141C14.6706 61.5067 14.4078 62.0956 14.1449 62.6191C14.2764 63.208 14.2764 63.7315 14.2764 64.1241C15.2621 62.9463 16.5106 61.0487 17.2992 58.4313C18.6135 54.1126 15.8535 50.71 15.8535 50.71C15.8535 50.71 14.6049 53.6545 13.9478 54.7015C13.2906 55.5521 12.2392 56.4028 11.3192 57.9078Z" fill="#787878"/>
<path d="M11.1879 58.4965C11.5164 58.7582 11.7793 59.0854 12.0421 59.3471C14.2107 61.8337 13.685 64.7782 13.6193 64.9091L13.5536 65.1709L13.3564 65.04C13.225 64.9745 10.8593 63.6658 9.61072 62.488C9.15072 62.0954 8.36215 61.0484 7.96786 60.4595C7.90215 61.1139 8.42786 62.3571 9.21644 63.1424C10.1364 64.0585 12.765 65.9561 12.765 66.0215L13.2907 66.4795L12.5679 66.3487C12.4364 66.3487 9.67644 65.8906 6.65358 63.2078C6.12786 62.7498 5.66786 62.2917 5.20786 61.7682C2.31644 58.4311 3.43358 53.9815 3.43358 53.916L3.63072 53.6543L3.82786 53.7852C3.82786 53.7852 6.25929 55.4865 7.24501 56.0754C7.50786 56.2717 7.83643 56.4026 8.16501 56.5989C9.08501 57.0569 10.1364 57.5804 11.1879 58.4965Z" fill="#787878"/>
<path d="M14.2107 64.582L14.4079 65.8907L12.9622 65.4327C12.9622 65.4327 15.7222 67.8538 16.1164 67.6575C16.5764 67.4612 15.1964 66.6759 14.2107 64.582Z" fill="#787878"/>
<path d="M6.98218 45.2133C7.04789 45.2787 7.04789 45.3442 7.11361 45.475C7.31075 45.8676 7.50789 46.1948 7.63932 46.5874C7.96789 47.4381 8.09932 48.2233 8.09932 49.0085C8.16503 48.9431 8.23075 48.8776 8.29646 48.8122C9.15075 47.9615 10.3993 46.1294 10.3993 46.1294C10.3993 46.1294 10.0707 47.8961 9.01932 49.2048C8.75646 49.532 8.36218 49.9246 7.96789 50.3172C7.90218 50.8407 7.77075 51.3642 7.63932 51.6913C8.88789 50.9716 10.5307 49.7283 12.0422 47.6998C14.4736 44.3626 13.0936 40.3711 13.0936 40.3711C13.0936 40.3711 11.1222 42.5959 10.2022 43.2502C9.47932 43.8391 8.23075 44.2318 6.98218 45.2133Z" fill="#787878"/>
<path d="M6.71929 45.671C6.91643 45.9981 7.04786 46.3907 7.245 46.7179C8.36214 49.6625 7.04786 52.0836 6.98214 52.2145L6.85071 52.4108L6.65357 52.2145C6.58786 52.149 4.87929 50.186 4.15643 48.681C3.89357 48.1575 3.49929 46.9797 3.36786 46.3253C3.105 46.8488 3.17071 48.1575 3.63071 49.139C4.15643 50.2514 5.93071 52.8688 5.93071 52.8688L6.25929 53.4577L5.66786 53.1305C5.60214 53.0651 3.23643 51.7564 1.39643 48.3538C1.06786 47.7649 0.805 47.176 0.542143 46.587C-1.035 42.5955 1.33071 39.062 1.33071 39.062L1.46214 38.8657L1.59357 39.062C1.59357 39.062 3.23643 41.4177 3.95929 42.2683C4.15643 42.5301 4.35357 42.7264 4.68214 43.0536C5.33929 43.7079 6.06214 44.4931 6.71929 45.671Z" fill="#787878"/>
<path d="M7.57356 52.1494L7.37642 53.3927L6.25928 52.4766C6.25928 52.4766 7.96785 55.552 8.36214 55.4866C8.75642 55.4866 7.77071 54.3088 7.57356 52.1494Z" fill="#787878"/>
<path d="M7.17927 32.5187C7.17927 32.5842 7.17927 32.715 7.24499 32.7805C7.3107 33.1731 7.37642 33.5657 7.37642 33.9583C7.44213 34.8744 7.3107 35.6596 7.04785 36.314C7.11356 36.314 7.17927 36.2485 7.24499 36.2485C8.29642 35.7905 10.005 34.5472 10.005 34.5472C10.005 34.5472 9.1507 36.0522 7.7707 36.8374C7.44213 37.0337 6.98213 37.2955 6.45642 37.4918C6.19356 37.9498 5.9307 38.3424 5.66785 38.6042C7.04785 38.4079 8.95356 37.8844 10.925 36.5103C14.2107 34.3509 14.145 30.2285 14.145 30.2285C14.145 30.2285 11.6478 31.5372 10.5964 31.8644C9.87356 32.1261 8.6907 31.9953 7.17927 32.5187Z" fill="#787878"/>
<path d="M6.785 32.8459C6.85071 33.2385 6.91643 33.6311 6.91643 34.0237C7.04785 37.0991 5.01071 38.8004 4.945 38.9313L4.74785 39.0622L4.68214 38.8004C4.61643 38.6696 3.69643 36.3139 3.49928 34.678C3.43357 34.0891 3.43357 32.9113 3.49928 32.2569C3.105 32.6496 2.77643 33.8928 2.90785 34.8743C3.03928 36.1176 3.82786 39.0622 3.82786 39.1276L3.95928 39.782L3.49928 39.2585C3.43357 39.1931 1.725 37.1646 1.06785 33.3693C0.936426 32.715 0.870712 32.1261 0.870712 31.4717C0.673569 27.3493 3.95928 24.9282 3.95928 24.9282L4.15643 24.7974L4.22214 25.0591C4.22214 25.0591 5.01071 27.7419 5.33928 28.7889C5.47071 29.0506 5.60214 29.3778 5.73357 29.705C6.12785 30.5556 6.58785 31.5372 6.785 32.8459Z" fill="#787878"/>
<path d="M5.53645 39.062L4.94502 40.109L4.22217 38.9312C4.22217 38.9312 4.8136 42.3338 5.20788 42.4646C5.60217 42.4646 5.07645 41.0905 5.53645 39.062Z" fill="#787878"/>
<path d="M11.4507 21.395C11.4507 21.4605 11.4507 21.5913 11.385 21.6568C11.3192 22.0494 11.2535 22.442 11.1221 22.7692C10.8592 23.6198 10.5307 24.2742 10.1364 24.7976C10.2021 24.7976 10.2678 24.7976 10.3992 24.7976C11.5164 24.7322 13.4878 24.2087 13.4878 24.2087C13.4878 24.2087 12.2392 25.2557 10.7278 25.5174C10.3335 25.5829 9.87353 25.6483 9.34782 25.6483C8.95353 25.9755 8.62496 26.2372 8.29639 26.4335C9.61067 26.7607 11.5164 26.8916 13.7507 26.3681C17.4307 25.5174 18.6792 21.7876 18.6792 21.7876C18.6792 21.7876 15.985 22.1148 14.9335 21.9839C14.0792 21.9839 12.9621 21.4605 11.4507 21.395Z" fill="#787878"/>
<path d="M10.9907 21.5256C10.925 21.9182 10.8593 22.2454 10.7278 22.638C9.87355 25.4517 7.50784 26.3678 7.44212 26.3678L7.24498 26.4986V26.2369C7.24498 26.106 7.11355 23.6195 7.44212 22.0491C7.57355 21.5256 7.90212 20.4132 8.16498 19.8243C7.70498 20.086 6.98212 21.0021 6.78498 21.9836C6.52212 23.1614 6.32498 26.1715 6.32498 26.1715L6.25926 26.8258L5.99641 26.2369C5.93069 26.1715 5.01069 23.6849 5.66784 20.0206C5.79926 19.4317 5.93069 18.7773 6.06212 18.1884C7.17926 14.3277 10.925 13.2808 10.925 13.2808L11.1221 13.2153V13.4771C11.1221 13.4771 10.9907 16.2253 10.9907 17.2723C10.9907 17.5995 10.9907 17.8612 11.0564 18.2538C11.1221 19.1699 11.1878 20.2823 10.9907 21.5256Z" fill="#787878"/>
<path d="M7.9021 26.7608L7.04781 27.4806L6.71924 26.1064C6.71924 26.1064 6.19352 29.4436 6.5221 29.6399C6.91638 29.9017 6.85067 28.3967 7.9021 26.7608Z" fill="#787878"/>
<path d="M19.2708 11.645C19.2051 11.7105 19.2051 11.7759 19.1393 11.8413C18.9422 12.1685 18.7451 12.4957 18.5479 12.8228C18.0222 13.5426 17.4965 14.0007 16.9051 14.3933C16.9708 14.3933 17.0365 14.4587 17.1022 14.4587C18.1536 14.7859 20.1251 15.0476 20.1251 15.0476C20.1251 15.0476 18.6136 15.5711 17.1022 15.3094C16.7079 15.2439 16.2479 15.1131 15.7222 14.9168C15.2622 15.1131 14.8679 15.1785 14.4736 15.2439C15.5908 16.0292 17.2993 16.8798 19.5993 17.207C23.3451 17.7305 25.7108 14.655 25.7108 14.655C25.7108 14.655 23.0822 14.0007 22.1622 13.4772C21.5051 13.15 20.6508 12.2994 19.2708 11.645Z" fill="#787878"/>
<path d="M18.745 11.6452C18.5478 11.9724 18.3507 12.2996 18.1536 12.5613C16.445 14.917 13.9478 14.917 13.8164 14.917H13.6193L13.685 14.6552C13.685 14.5244 14.4078 12.1687 15.1964 10.7946C15.4593 10.3365 16.1821 9.42044 16.6421 8.9624C16.1164 9.02783 15.1307 9.68218 14.6707 10.5328C14.0793 11.5144 12.8964 14.2626 12.8964 14.2626L12.5678 14.8515V14.1972C12.5678 14.0663 12.5021 11.4489 14.2107 8.24262C14.4736 7.71914 14.8021 7.19566 15.1964 6.67218C17.4964 3.5313 21.3078 3.92391 21.3078 3.92391H21.5707L21.505 4.18565C21.505 4.18565 20.5193 6.67218 20.125 7.71914C20.0593 7.98088 19.9278 8.30805 19.8621 8.70066C19.5993 9.48588 19.3364 10.5328 18.745 11.6452Z" fill="#787878"/>
<path d="M14.2106 15.44L13.1592 15.8326L13.2906 14.4585C13.2906 14.4585 11.7135 17.4031 11.9763 17.7302C12.2392 18.0574 12.6335 16.6178 14.2106 15.44Z" fill="#787878"/>
<path d="M29.0622 6.99902C28.9964 7.06446 28.9307 7.12989 28.865 7.12989C28.6022 7.39163 28.2736 7.58794 28.0107 7.78424C27.3536 8.24229 26.6964 8.50403 26.0393 8.6349C26.105 8.70033 26.1707 8.76577 26.2364 8.76577C27.0907 9.48555 28.865 10.4016 28.865 10.4016C28.865 10.4016 27.2879 10.4016 26.0393 9.55099C25.7107 9.35468 25.3164 9.02751 24.9222 8.76577C24.4622 8.76577 24.0022 8.70033 23.6736 8.6349C24.4622 9.74729 25.7764 11.1214 27.7479 12.2338C30.9679 14.066 34.1222 12.0375 34.1222 12.0375C34.1222 12.0375 31.9536 10.4671 31.2307 9.74729C30.6393 9.15838 30.1793 8.04598 29.0622 6.99902Z" fill="#787878"/>
<path d="M28.6679 6.80286C28.4051 7.0646 28.1422 7.26091 27.8794 7.45721C25.5794 9.02765 23.2794 8.11156 23.2137 8.04613L23.0165 7.98069L23.1479 7.78439C23.2137 7.71895 24.5937 5.7559 25.7765 4.83981C26.1708 4.51264 27.0908 3.92372 27.6165 3.66198C27.0908 3.53111 26.0394 3.79285 25.3165 4.38177C24.3308 5.10155 22.4251 7.19547 22.4251 7.19547L21.9651 7.58808L22.1622 6.99917C22.1622 6.8683 22.9508 4.4472 25.5137 2.15698C25.9737 1.76437 26.4337 1.43719 26.8937 1.04459C29.9822 -1.04933 33.3994 0.651975 33.3994 0.651975L33.5965 0.782845L33.4651 0.97915C33.4651 0.97915 31.7565 2.87676 31.0994 3.72742C30.9022 3.92372 30.7708 4.18546 30.5737 4.4472C30.1137 5.16699 29.5222 6.01764 28.6679 6.80286Z" fill="#787878"/>
<path d="M23.2793 8.63486H22.1622L22.7536 7.45703C22.7536 7.45703 20.3879 9.55095 20.5193 9.94356C20.7165 10.3362 21.505 9.22377 23.2793 8.63486Z" fill="#787878"/>
<path d="M59.0935 77.3415C59.0278 77.3415 58.8963 77.3415 58.8306 77.3415C58.3706 77.3415 57.9763 77.3415 57.5163 77.407C56.5306 77.5379 55.7421 77.865 55.0192 78.2576C55.0192 78.1268 55.0849 78.0613 55.0849 77.9959C55.3478 76.6218 56.3335 74.2661 56.3335 74.2661C56.3335 74.2661 54.8878 75.6402 54.2963 77.407C54.1649 77.865 53.9678 78.4539 53.8363 79.1083C53.3763 79.5009 53.0478 79.8935 52.7849 80.2861C52.7192 78.5848 52.9163 76.1637 53.9678 73.4154C55.6763 68.9659 60.0792 68.2461 60.0792 68.2461C60.0792 68.2461 59.1592 71.5833 59.0935 72.892C59.0278 74.0044 59.3563 75.4439 59.0935 77.3415Z" fill="#787878"/>
<path d="M58.8306 77.9307C60.2763 77.9307 61.4592 78.2578 62.4449 78.5196C62.8392 78.6505 63.2334 78.7159 63.562 78.7813C64.8106 79.0431 67.8334 79.3702 67.8334 79.3702L68.0963 79.4357L67.9649 79.6974C67.9649 79.7629 65.9934 84.2124 61.4592 84.8013C60.7363 84.8668 60.0134 84.9322 59.3563 84.9322C55.2163 84.9322 52.6534 83.2309 52.522 83.1655L51.8649 82.7729H52.5877C52.5877 82.7729 56.0049 83.1 57.3191 83.0346C58.4363 82.9692 59.6849 82.3148 60.0134 81.7259C59.2906 81.9222 57.9763 82.1839 57.3849 82.1839C55.6106 82.2494 52.8506 81.595 52.7192 81.595L52.4563 81.5296L52.5877 81.2679C52.6534 81.137 54.0992 78.3233 57.4506 77.8652C57.9763 77.9307 58.4363 77.9307 58.8306 77.9307Z" fill="#787878"/>
<path d="M52.3907 80.6787L51.4049 81.5948L52.8507 82.2491C52.8507 82.2491 49.0392 82.2491 48.8421 81.7257C48.7107 81.2676 50.3535 81.6602 52.3907 80.6787Z" fill="#787878"/>
<path d="M71.5135 69.6203C71.4478 69.6203 71.3164 69.6858 71.2507 69.6858C70.8564 69.8166 70.4621 70.013 70.0678 70.2093C69.2135 70.6673 68.5564 71.2562 68.0964 71.8451C68.0964 71.7797 68.0964 71.6488 68.0307 71.5834C67.8336 70.2093 68.0307 67.7227 68.0307 67.7227C68.0307 67.7227 67.1107 69.4895 67.1764 71.3217C67.1764 71.7797 67.2421 72.3686 67.3078 73.023C67.045 73.5464 66.8478 74.0699 66.7164 74.4625C66.125 72.9575 65.5336 70.6673 65.665 67.7882C65.8621 63.1423 69.6735 60.8521 69.6735 60.8521C69.6735 60.8521 69.8707 64.1892 70.1993 65.4325C70.3964 66.5449 71.1193 67.7882 71.5135 69.6203Z" fill="#787878"/>
<path d="M71.4479 70.2091C72.7622 69.6857 73.945 69.6202 74.9308 69.4893C75.325 69.4239 75.7193 69.4239 76.0479 69.3585C77.2308 69.1622 80.1222 68.4424 80.1222 68.4424L80.385 68.377V68.6387C80.385 68.7041 79.9908 73.4154 76.0479 75.5748C75.4565 75.902 74.7993 76.2291 74.1422 76.4255C70.3308 77.865 67.505 77.2761 67.3736 77.2107L66.6508 77.0798L67.3079 76.8181C67.3079 76.8181 70.5279 75.902 71.7108 75.3785C72.7622 74.9204 73.6165 73.8735 73.8136 73.2191C73.2222 73.6772 72.105 74.3315 71.5793 74.5933C70.0022 75.3131 67.2422 75.6402 67.1108 75.7057L66.8479 75.7711L66.9136 75.5094C66.9136 75.3785 67.3736 72.303 70.265 70.7326C70.6593 70.5363 71.0536 70.34 71.4479 70.2091Z" fill="#787878"/>
<path d="M66.4535 74.9858L65.7964 76.2291L67.3078 76.2945C67.3078 76.2945 63.825 77.6032 63.4964 77.2106C63.2335 76.8834 64.8764 76.6217 66.4535 74.9858Z" fill="#787878"/>
<path d="M80.7136 57.9078C80.6478 57.9732 80.5821 58.0387 80.5164 58.1041C80.1878 58.3659 79.925 58.693 79.5964 59.0202C78.9393 59.74 78.545 60.5252 78.2821 61.245C78.2164 61.1796 78.2164 61.0487 78.1507 60.9833C77.5593 59.8054 76.9678 57.5152 76.9678 57.5152C76.9678 57.5152 76.705 59.4128 77.2964 61.1141C77.4278 61.5067 77.6907 62.0956 77.9536 62.6191C77.8221 63.208 77.8221 63.7315 77.8221 64.1241C76.8364 62.9463 75.5878 61.0487 74.7993 58.4313C73.485 54.1126 76.245 50.71 76.245 50.71C76.245 50.71 77.4936 53.6545 78.1507 54.7015C78.7421 55.5521 79.7936 56.4028 80.7136 57.9078Z" fill="#787878"/>
<path d="M80.8449 58.4965C81.8963 57.5804 82.9477 57.0569 83.802 56.5989C84.1963 56.4026 84.4591 56.2717 84.722 56.0754C85.7077 55.4865 88.1392 53.7852 88.1392 53.7852L88.3363 53.6543L88.402 53.916C88.402 53.9815 89.5849 58.3656 86.6277 61.7682C86.1677 62.2917 85.7077 62.8152 85.182 63.2078C82.1592 65.8906 79.3991 66.3487 79.2677 66.3487L78.5449 66.4795L79.0706 66.0215C79.0706 66.0215 81.6991 64.0585 82.6191 63.1424C83.4077 62.3571 83.9334 61.1139 83.8677 60.4595C83.4734 61.0484 82.6849 62.0954 82.2249 62.488C80.9763 63.6658 78.6106 64.9745 78.4791 65.04L78.2163 65.1709L78.1506 64.9091C78.1506 64.7782 77.6249 61.8337 79.7277 59.3471C80.2534 59.02 80.5163 58.7582 80.8449 58.4965Z" fill="#787878"/>
<path d="M77.8221 64.582L77.625 65.8907L79.0707 65.4327C79.0707 65.4327 76.3107 67.8538 75.9164 67.6575C75.4564 67.4612 76.8364 66.6759 77.8221 64.582Z" fill="#787878"/>
<path d="M85.0508 45.2133C84.9851 45.2787 84.9851 45.3441 84.9194 45.475C84.7222 45.8676 84.5251 46.1948 84.3936 46.5874C84.0651 47.4381 83.9336 48.2233 83.9336 49.0085C83.8679 48.9431 83.8022 48.8776 83.7365 48.8122C82.8822 47.9615 81.6337 46.1294 81.6337 46.1294C81.6337 46.1294 81.9622 47.8961 83.0137 49.2048C83.2765 49.532 83.6708 49.9246 84.0651 50.3172C84.1308 50.8407 84.2622 51.3642 84.3936 51.6913C83.1451 50.9715 81.5022 49.7283 79.9908 47.6998C77.5594 44.3626 78.9394 40.3711 78.9394 40.3711C78.9394 40.3711 80.9108 42.5959 81.8308 43.2502C82.5537 43.8391 83.8022 44.2318 85.0508 45.2133Z" fill="#787878"/>
<path d="M85.3137 45.6715C85.9708 44.4936 86.7594 43.643 87.3508 42.9886C87.6137 42.7269 87.8765 42.4651 88.0737 42.2034C88.7965 41.2873 90.3737 38.9971 90.4394 38.9971L90.5708 38.8008L90.7022 38.9971C90.7022 39.0625 93.0679 42.596 91.4908 46.5221C91.228 47.111 90.9651 47.7654 90.6365 48.2889C88.7965 51.6915 86.4308 53.0002 86.3651 53.0656L85.7737 53.3928L86.1023 52.8039C86.1023 52.8039 87.8765 50.1865 88.4022 49.0741C88.8622 48.158 88.928 46.8493 88.6651 46.2604C88.5337 46.9147 88.0737 48.0925 87.8765 48.616C87.1537 50.121 85.4451 52.0841 85.3794 52.1495L85.1823 52.3458L85.0508 52.1495C84.9851 52.0186 83.6051 49.5976 84.788 46.653C84.9851 46.3912 85.1165 46.0641 85.3137 45.6715Z" fill="#787878"/>
<path d="M84.4593 52.1494L84.6564 53.3927L85.7736 52.4766C85.7736 52.4766 84.065 55.552 83.6707 55.4866C83.2764 55.4866 84.2621 54.3088 84.4593 52.1494Z" fill="#787878"/>
<path d="M84.8536 32.5187C84.8536 32.5842 84.8536 32.715 84.7878 32.7805C84.7221 33.1731 84.6564 33.5657 84.6564 33.9583C84.5907 34.8744 84.7221 35.6596 84.985 36.314C84.9193 36.314 84.8536 36.2485 84.7878 36.2485C83.7364 35.7905 82.0278 34.5472 82.0278 34.5472C82.0278 34.5472 82.8821 36.0522 84.2621 36.8374C84.5907 37.0337 85.0507 37.2955 85.5764 37.4918C85.8393 37.9498 86.1021 38.3424 86.2993 38.6042C84.9193 38.4079 83.0136 37.8844 81.0421 36.5103C77.7564 34.3509 77.8221 30.2285 77.8221 30.2285C77.8221 30.2285 80.3193 31.5372 81.3707 31.8644C82.1593 32.1261 83.3421 31.9953 84.8536 32.5187Z" fill="#787878"/>
<path d="M85.2479 32.8459C85.445 31.5372 85.905 30.5556 86.2993 29.705C86.4307 29.3778 86.5622 29.0506 86.6936 28.7889C87.0879 27.7419 87.8107 25.0591 87.8107 25.0591L87.8764 24.7974L88.0736 24.9282C88.0736 24.9282 91.3593 27.3493 91.1622 31.5372C91.1622 32.1915 91.0964 32.8459 90.965 33.4348C90.3736 37.1646 88.665 39.1931 88.5336 39.3239L88.0736 39.8474L88.205 39.1931C88.205 39.1931 88.9936 36.183 89.125 34.9398C89.2565 33.8928 88.9279 32.715 88.5336 32.3224C88.5993 32.9767 88.5993 34.22 88.5336 34.7435C88.3364 36.3794 87.4164 38.735 87.3507 38.8659L87.285 39.1276L87.0879 38.9967C87.0222 38.9313 84.985 37.1646 85.1164 34.0891C85.1164 33.6311 85.1822 33.2385 85.2479 32.8459Z" fill="#787878"/>
<path d="M86.4965 39.062L87.0879 40.109L87.8108 38.9312C87.8108 38.9312 87.2193 42.3338 86.825 42.4646C86.4307 42.4646 86.9565 41.0905 86.4965 39.062Z" fill="#787878"/>
<path d="M80.5821 21.395C80.5821 21.4605 80.5821 21.5913 80.6478 21.6568C80.7135 22.0494 80.7792 22.442 80.9107 22.7692C81.1735 23.6198 81.5021 24.2742 81.8964 24.7976C81.8307 24.7976 81.7649 24.7976 81.6335 24.7976C80.5164 24.7322 78.5449 24.2087 78.5449 24.2087C78.5449 24.2087 79.7935 25.2557 81.3049 25.5174C81.6992 25.5829 82.1592 25.6483 82.6849 25.6483C83.0792 25.9755 83.4078 26.2372 83.7364 26.4335C82.4221 26.7607 80.5164 26.8916 78.2821 26.3681C74.6021 25.5174 73.3535 21.7876 73.3535 21.7876C73.3535 21.7876 76.0478 22.1148 77.0992 21.9839C77.9535 21.9839 79.0707 21.4605 80.5821 21.395Z" fill="#787878"/>
<path d="M81.0422 21.5256C80.8451 20.2823 80.9108 19.1699 80.9765 18.3193C81.0422 17.9266 81.0422 17.5995 81.0422 17.3377C81.0422 16.2253 80.9108 13.5425 80.9108 13.5425V13.2808L81.1079 13.3462C81.1736 13.3462 84.8536 14.3932 85.9708 18.2538C86.1679 18.8427 86.2993 19.4971 86.3651 20.086C86.9565 23.7504 86.0365 26.1714 86.0365 26.3023L85.7736 26.8912L85.7079 26.2369C85.7079 26.2369 85.5108 23.2269 85.2479 22.049C85.0508 21.0675 84.3279 20.086 83.8679 19.8897C84.1308 20.4786 84.5251 21.591 84.5908 22.1145C84.9193 23.6849 84.7879 26.1714 84.7879 26.3023V26.5641L84.5908 26.4986C84.4593 26.4332 82.0936 25.5825 81.3051 22.7688C81.1736 22.2453 81.1079 21.9182 81.0422 21.5256Z" fill="#787878"/>
<path d="M84.1307 26.7603L84.985 27.4801L85.3136 26.106C85.3136 26.106 85.8393 29.4431 85.5107 29.6394C85.1165 29.9012 85.1822 28.3962 84.1307 26.7603Z" fill="#787878"/>
<path d="M72.7623 11.645C72.828 11.7105 72.828 11.7759 72.8937 11.8413C73.0908 12.1685 73.288 12.4957 73.4851 12.8228C74.0108 13.5426 74.5366 14.0007 75.128 14.3933C75.0623 14.3933 74.9966 14.4587 74.9308 14.4587C73.8794 14.7859 71.908 15.0476 71.908 15.0476C71.908 15.0476 73.4194 15.5711 74.9308 15.3094C75.3251 15.2439 75.7851 15.1131 76.3108 14.9168C76.7708 15.1131 77.1651 15.1785 77.5594 15.2439C76.4423 16.0292 74.7337 16.8798 72.4337 17.207C68.688 17.7305 66.3223 14.655 66.3223 14.655C66.3223 14.655 68.9508 14.0007 69.8708 13.4772C70.528 13.15 71.448 12.2994 72.7623 11.645Z" fill="#787878"/>
<path d="M73.288 11.6452C72.6966 10.5328 72.4337 9.48586 72.2366 8.6352C72.1709 8.24259 72.0394 7.98085 71.9737 7.65368C71.6451 6.60672 70.5937 4.12019 70.5937 4.12019L70.4623 3.92389H70.7251C70.7909 3.92389 74.6023 3.53128 76.9023 6.73759C77.2308 7.26107 77.5594 7.78455 77.888 8.30803C79.5966 11.5143 79.5308 14.1317 79.5308 14.2626V14.917L79.2023 14.328C79.2023 14.328 78.0194 11.5798 77.428 10.5983C76.9023 9.7476 75.9823 9.09325 75.4566 9.02781C75.9166 9.48586 76.5737 10.4019 76.9023 10.86C77.6908 12.1687 78.4137 14.5898 78.4137 14.7207L78.4794 14.9824H78.2823C78.1508 14.9824 75.6537 15.0478 73.9451 12.6267C73.6823 12.2996 73.4851 11.9724 73.288 11.6452Z" fill="#787878"/>
<path d="M77.8221 15.44L78.8736 15.8326L78.7421 14.4585C78.7421 14.4585 80.3193 17.4031 80.0564 17.7302C79.7936 18.0574 79.3993 16.6179 77.8221 15.44Z" fill="#787878"/>
<path d="M62.9707 6.99902C63.0364 7.06446 63.1021 7.12989 63.1678 7.12989C63.4306 7.39163 63.7592 7.58794 64.0221 7.78424C64.6792 8.24229 65.3364 8.50403 65.9935 8.6349C65.9278 8.70033 65.8621 8.76577 65.7964 8.76577C64.9421 9.48555 63.1678 10.4016 63.1678 10.4016C63.1678 10.4016 64.7449 10.4016 65.9935 9.55099C66.3221 9.35468 66.7164 9.02751 67.1107 8.76577C67.5707 8.76577 68.0307 8.70033 68.3592 8.6349C67.5707 9.74729 66.2564 11.1214 64.2849 12.2338C61.0649 14.066 57.9106 12.0375 57.9106 12.0375C57.9106 12.0375 60.0792 10.4671 60.8021 9.74729C61.3935 9.15838 61.8535 8.04598 62.9707 6.99902Z" fill="#787878"/>
<path d="M63.3651 6.80286C62.4451 6.01764 61.9194 5.16699 61.4594 4.4472C61.2622 4.18546 61.1308 3.92372 60.9337 3.66198C60.2765 2.81133 58.568 0.913715 58.568 0.913715L58.4365 0.71741L58.6337 0.651975C58.6337 0.651975 62.0508 -1.04933 65.1394 1.04459C65.5994 1.37176 66.0594 1.76437 66.5194 2.15698C69.0822 4.4472 69.8708 6.8683 69.8708 6.99917L70.068 7.58808L69.608 7.19547C69.608 7.19547 67.7022 5.10155 66.7822 4.38177C66.0594 3.79285 64.9422 3.53111 64.4822 3.66198C65.008 3.92372 65.928 4.51264 66.3222 4.83981C67.4394 5.7559 68.8851 7.71895 68.9508 7.78439L69.0822 7.98069L68.8851 8.04613C68.8194 8.11156 66.5194 9.02765 64.2194 7.45721C63.9565 7.26091 63.628 7.0646 63.3651 6.80286Z" fill="#787878"/>
<path d="M68.7535 8.63486H69.8707L69.2793 7.45703C69.2793 7.45703 71.645 9.55095 71.5136 9.94356C71.3164 10.3362 70.5278 9.22377 68.7535 8.63486Z" fill="#787878"/>
</svg>
