<svg width="6" height="13" viewBox="0 0 6 13" fill="none" xmlns="http://www.w3.org/2000/svg">
<path fill-rule="evenodd" clip-rule="evenodd" d="M1.41044 2.70523V3.74106C1.41044 4.07526 1.13951 4.34618 0.805316 4.34618C0.471117 4.34618 0.200195 4.6171 0.200195 4.9513V5.74527C0.200195 6.07947 0.471117 6.35039 0.805316 6.35039C1.13951 6.35039 1.41044 6.62131 1.41044 6.95551V11.0559C1.41044 11.7432 1.9676 12.3004 2.6549 12.3004C3.3422 12.3004 3.89936 11.7432 3.89936 11.0559V7.25218C3.89936 6.75414 4.30311 6.35039 4.80115 6.35039C5.24335 6.35039 5.61975 6.02963 5.67468 5.59086C5.68555 5.50401 5.69669 5.41171 5.7078 5.31505C5.76825 4.78913 5.34973 4.33929 4.82035 4.33929C4.31686 4.33929 3.9087 3.93113 3.9087 3.42763V3.08199C3.9087 3.00634 3.91213 2.92949 3.93967 2.85904C4.02159 2.64944 4.21814 2.50165 4.44817 2.4879H4.75653C5.33298 2.4879 5.80028 2.0206 5.80028 1.44415C5.80028 0.867696 5.33298 0.400391 4.75653 0.400391H3.95847C1.34883 0.400391 1.41044 2.4046 1.41044 2.70523Z" fill="white"/>
</svg>
