<svg width="14" height="14" viewBox="0 0 14 14" fill="none" xmlns="http://www.w3.org/2000/svg">
<path fill-rule="evenodd" clip-rule="evenodd" d="M2.1002 0.700195H11.9002C12.6734 0.700195 13.3002 1.327 13.3002 2.1002V11.9002C13.3002 12.6734 12.6734 13.3002 11.9002 13.3002H2.1002C1.327 13.3002 0.700195 12.6734 0.700195 11.9002V2.1002C0.700195 1.327 1.327 0.700195 2.1002 0.700195ZM4.20005 11.1996C4.39335 11.1996 4.55005 11.0429 4.55005 10.8496V5.94961C4.55005 5.75631 4.39335 5.59961 4.20005 5.59961H3.15005C2.95675 5.59961 2.80005 5.75631 2.80005 5.94961V10.8496C2.80005 11.0429 2.95675 11.1996 3.15005 11.1996H4.20005ZM3.675 4.8998C3.0951 4.8998 2.625 4.4297 2.625 3.8498C2.625 3.26991 3.0951 2.7998 3.675 2.7998C4.2549 2.7998 4.725 3.26991 4.725 3.8498C4.725 4.4297 4.2549 4.8998 3.675 4.8998ZM10.8501 11.2015C11.0434 11.2015 11.2001 11.0448 11.2001 10.8515V7.63154C11.2228 6.51908 10.4004 5.5697 9.2961 5.43354C8.6652 5.37591 8.05029 5.60616 7.61418 6.04581C7.52633 6.13438 7.3501 6.07629 7.3501 5.95154C7.3501 5.75824 7.1934 5.60154 7.0001 5.60154H5.9501C5.7568 5.60154 5.6001 5.75824 5.6001 5.95154V10.8515C5.6001 11.0448 5.7568 11.2015 5.9501 11.2015H7.0001C7.1934 11.2015 7.3501 11.0448 7.3501 10.8515V8.22654C7.3501 7.64664 7.8202 7.17654 8.4001 7.17654C8.98 7.17654 9.4501 7.64664 9.4501 8.22654V10.8515C9.4501 11.0448 9.6068 11.2015 9.8001 11.2015H10.8501Z" fill="white"/>
</svg>
