<svg width="20" height="20" viewBox="0 0 20 20" fill="none" xmlns="http://www.w3.org/2000/svg">
<path fill-rule="evenodd" clip-rule="evenodd" d="M14.0419 0H5.95811C2.67279 0 0 2.67279 0 5.95811V14.0419C0 17.3272 2.67279 20 5.95811 20H14.0419C17.3272 20 20 17.3272 20 14.0419V5.95811C20 2.67279 17.3272 0 14.0419 0ZM17.988 14.0416C17.988 16.221 16.2213 17.9877 14.0419 17.9877H5.95813C3.77878 17.9877 2.01202 16.221 2.01202 14.0416V5.95782C2.01202 3.77843 3.77878 2.01172 5.95813 2.01172H14.0419C16.2213 2.01172 17.988 3.77843 17.988 5.95782V14.0416ZM4.82727 9.99982C4.82727 7.14763 7.14774 4.82715 9.99998 4.82715C12.8522 4.82715 15.1727 7.14758 15.1727 9.99982C15.1727 12.8521 12.8522 15.1725 9.99998 15.1725C7.14774 15.1725 4.82727 12.852 4.82727 9.99982ZM10 13.1608C8.25438 13.1608 6.83929 11.7457 6.83929 10.0001C6.83929 8.25444 8.25442 6.83936 10 6.83936C11.7456 6.83936 13.1607 8.25444 13.1607 10.0001C13.1607 11.7457 11.7456 13.1608 10 13.1608ZM16.4222 4.86644C16.4222 5.55099 15.8673 6.10593 15.1827 6.10593C14.4982 6.10593 13.9432 5.55099 13.9432 4.86644C13.9432 4.18188 14.4982 3.62695 15.1827 3.62695C15.8673 3.62695 16.4222 4.18188 16.4222 4.86644Z" fill="#00BFFE"/>
</svg>
