<svg width="14" height="14" viewBox="0 0 14 14" fill="none" xmlns="http://www.w3.org/2000/svg">
<path fill-rule="evenodd" clip-rule="evenodd" d="M4.63775 0.700195H9.36281C11.5371 0.700195 13.3004 2.46341 13.3004 4.6377V9.3627C13.3004 11.537 11.5371 13.3002 9.36281 13.3002H4.63775C2.46343 13.3002 0.700195 11.537 0.700195 9.3627V4.6377C0.700195 2.46341 2.46343 0.700195 4.63775 0.700195ZM9.3626 12.1184C10.8825 12.1184 12.1188 10.882 12.1188 9.36211V4.63711C12.1188 3.11723 10.8825 1.88086 9.3626 1.88086H4.6376C3.11772 1.88086 1.88135 3.11723 1.88135 4.63711V9.36211C1.88135 10.882 3.11772 12.1184 4.6376 12.1184H9.3626Z" fill="white"/>
<path fill-rule="evenodd" clip-rule="evenodd" d="M3.49866 7C3.49866 5.06712 5.0658 3.5 6.9987 3.5C8.9316 3.5 10.4987 5.06712 10.4987 7C10.4987 8.93288 8.9316 10.5 6.9987 10.5C5.0658 10.5 3.49866 8.93288 3.49866 7ZM4.81226 7C4.81226 8.20575 5.79402 9.1875 6.9998 9.1875C8.20557 9.1875 9.18734 8.20575 9.18734 7C9.18734 5.79338 8.20557 4.8125 6.9998 4.8125C5.79402 4.8125 4.81226 5.79338 4.81226 7Z" fill="white"/>
<path d="M10.0316 3.96792C10.2893 3.96792 10.4982 3.75911 10.4982 3.50154C10.4982 3.24396 10.2893 3.03516 10.0316 3.03516C9.77386 3.03516 9.56494 3.24396 9.56494 3.50154C9.56494 3.75911 9.77386 3.96792 10.0316 3.96792Z" fill="white"/>
</svg>
