<svg width="22" height="18" viewBox="0 0 22 18" fill="none" xmlns="http://www.w3.org/2000/svg">
<path fill-rule="evenodd" clip-rule="evenodd" d="M19.4076 2.84677C20.3395 2.28359 21.0552 1.39381 21.3917 0.333024C20.5194 0.853775 19.5538 1.2318 18.5249 1.43496C17.7017 0.551611 16.5291 0 15.231 0C12.7382 0 10.7166 2.03415 10.7166 4.54404C10.7166 4.90149 10.758 5.24737 10.8343 5.5804C7.08354 5.39139 3.75856 3.58097 1.53242 0.831917C1.14284 1.50311 0.92152 2.28359 0.92152 3.11679C0.92152 4.69319 1.71879 6.08443 2.92893 6.89835C2.18861 6.87521 1.49229 6.67076 0.885281 6.33002C0.885281 6.34931 0.885281 6.3686 0.885281 6.38788C0.885281 8.58918 2.4397 10.4253 4.50535 10.8432C4.12613 10.9474 3.72879 11.0026 3.31592 11.0026C3.026 11.0026 2.74256 10.9744 2.46688 10.9204C3.04153 12.7256 4.70855 14.0397 6.68361 14.077C5.13825 15.2947 3.19167 16.0211 1.07683 16.0211C0.713143 16.0211 0.353336 16.0006 0 15.9581C1.99706 17.2478 4.36946 18 6.91917 18C15.2206 18 19.7609 11.0759 19.7609 5.07122C19.7609 4.87321 19.7557 4.67905 19.748 4.48361C20.6294 3.84327 21.3956 3.04222 22 2.13187C21.1911 2.49189 20.32 2.7362 19.4076 2.84677Z" fill="#00BFFE"/>
</svg>
