<svg width="14" height="10" viewBox="0 0 14 10" fill="none" xmlns="http://www.w3.org/2000/svg">
<path fill-rule="evenodd" clip-rule="evenodd" d="M11.93 1.06964C12.4697 1.21499 12.8953 1.64047 13.0405 2.18024C13.2885 3.08593 13.2999 4.89384 13.3001 5.1821C13.3001 5.20904 13.3001 5.23347 13.2999 5.26041C13.2983 5.5479 13.2789 7.34632 13.0406 8.25187C12.8953 8.79155 12.4698 9.21712 11.93 9.36237C10.944 9.62192 7.00013 9.62192 7.00013 9.62192C7.00013 9.62192 3.06651 9.62192 2.07023 9.35208C1.53046 9.20673 1.105 8.78116 0.959648 8.24148C0.700195 7.26585 0.700195 5.21086 0.700195 5.21086C0.700195 5.21086 0.700195 3.16616 0.959648 2.18024C1.1049 1.64056 1.54085 1.20461 2.07013 1.05936C3.05613 0.799805 7.00003 0.799805 7.00003 0.799805C7.00003 0.799805 10.944 0.799805 11.93 1.06964ZM6.49381 6.66845C6.16047 6.86043 5.74426 6.61984 5.74426 6.23517V4.18724C5.74426 3.80257 6.16047 3.56198 6.49381 3.75396L8.27169 4.77793C8.60563 4.97026 8.60563 5.45215 8.27169 5.64448L6.49381 6.66845Z" fill="white"/>
</svg>
