<svg width="1310" height="892" viewBox="0 0 1310 892" fill="none" xmlns="http://www.w3.org/2000/svg">
<path d="M290.316 29.3832L831.5 862L313.95 760.968L898.202 29.3832L290.316 218.463L628.885 3L1177.41 334.439L21 760.968L1267 746.677L290.316 29.3832Z" stroke="#E9EBF1"/>
<circle cx="1275.5" cy="757.5" r="18.5" fill="url(#paint0_linear)"/>
<circle cx="1275.5" cy="757.5" r="26.5" stroke="url(#paint1_linear)" stroke-opacity="0.1" stroke-width="16"/>
<circle cx="898.5" cy="25.5" r="9.5" fill="url(#paint2_linear)"/>
<circle cx="898.5" cy="25.5" r="17.5" stroke="url(#paint3_linear)" stroke-opacity="0.1" stroke-width="16"/>
<circle cx="296.5" cy="25.5" r="9.5" fill="url(#paint4_linear)"/>
<circle cx="296.5" cy="25.5" r="17.5" stroke="url(#paint5_linear)" stroke-opacity="0.1" stroke-width="16"/>
<circle cx="827" cy="862" r="14" fill="url(#paint6_linear)"/>
<circle cx="827" cy="862" r="22" stroke="url(#paint7_linear)" stroke-opacity="0.1" stroke-width="16"/>
<circle cx="30" cy="756" r="14" fill="url(#paint8_linear)"/>
<circle cx="30" cy="756" r="22" stroke="url(#paint9_linear)" stroke-opacity="0.1" stroke-width="16"/>
<defs>
<linearGradient id="paint0_linear" x1="1266.71" y1="740.138" x2="1283.44" y2="774.207" gradientUnits="userSpaceOnUse">
<stop stop-color="#FFC1AF"/>
<stop offset="1" stop-color="#FDA287"/>
</linearGradient>
<linearGradient id="paint1_linear" x1="1290.74" y1="776" x2="1230.06" y2="701.93" gradientUnits="userSpaceOnUse">
<stop stop-color="white"/>
<stop offset="1" stop-color="#FE8360"/>
</linearGradient>
<linearGradient id="paint2_linear" x1="893.984" y1="16.5846" x2="902.578" y2="34.0792" gradientUnits="userSpaceOnUse">
<stop stop-color="#FFF9F8"/>
<stop offset="1" stop-color="white"/>
</linearGradient>
<linearGradient id="paint3_linear" x1="906.327" y1="35" x2="875.164" y2="-3.03598" gradientUnits="userSpaceOnUse">
<stop stop-color="#D4DEFA"/>
<stop offset="1" stop-color="#D8DFF2"/>
</linearGradient>
<linearGradient id="paint4_linear" x1="291.984" y1="16.5846" x2="300.578" y2="34.0792" gradientUnits="userSpaceOnUse">
<stop stop-color="#FFF9F8"/>
<stop offset="1" stop-color="white"/>
</linearGradient>
<linearGradient id="paint5_linear" x1="304.327" y1="35" x2="273.164" y2="-3.03598" gradientUnits="userSpaceOnUse">
<stop stop-color="#D4DEFA"/>
<stop offset="1" stop-color="#D8DFF2"/>
</linearGradient>
<linearGradient id="paint6_linear" x1="820.345" y1="848.862" x2="833.009" y2="874.643" gradientUnits="userSpaceOnUse">
<stop stop-color="#E1E6F3"/>
<stop offset="1" stop-color="#EAEFFE"/>
</linearGradient>
<linearGradient id="paint7_linear" x1="838.534" y1="876" x2="792.61" y2="819.947" gradientUnits="userSpaceOnUse">
<stop stop-color="white"/>
<stop offset="1" stop-color="#63BCDA"/>
</linearGradient>
<linearGradient id="paint8_linear" x1="23.3446" y1="742.862" x2="36.0092" y2="768.643" gradientUnits="userSpaceOnUse">
<stop stop-color="#E1E6F3"/>
<stop offset="1" stop-color="#EAEFFE"/>
</linearGradient>
<linearGradient id="paint9_linear" x1="41.5341" y1="770" x2="-4.39015" y2="713.947" gradientUnits="userSpaceOnUse">
<stop stop-color="white"/>
<stop offset="1" stop-color="#63BCDA"/>
</linearGradient>
</defs>
</svg>
