<svg width="99" height="113" viewBox="0 0 99 113" fill="none" xmlns="http://www.w3.org/2000/svg">
<path d="M86.1465 93.3843C86.1465 93.3843 85.9887 93.5375 85.64 93.7742C85.4822 93.9273 85.3244 94.0804 85.1029 94.2614C84.9757 94.3172 84.8815 94.4424 84.7236 94.5955C84.5964 94.6513 84.4386 94.8044 84.3113 94.8601C83.1074 95.7234 81.1377 96.7542 78.2981 97.41C76.8937 97.6892 75.2959 97.8851 73.5355 97.9003C71.775 97.9154 69.8189 97.6804 67.7967 97.3062C63.6862 96.4189 59.1159 94.7252 54.7194 91.7794C52.4893 90.3204 50.3816 88.4718 48.6508 86.1222C48.4221 85.8025 48.2263 85.5522 47.9976 85.2325C47.7689 84.9127 47.6038 84.5651 47.408 84.3148C47.0472 83.7169 46.717 83.0217 46.4834 82.368C45.9196 81.0192 45.5466 79.5867 45.3975 78.1401C45.2911 77.4308 45.312 76.6657 45.3659 75.9702C45.4198 75.2746 45.5373 74.5512 45.7515 73.8694C45.8433 73.5773 45.9657 73.1877 46.1211 72.8676C46.2765 72.5476 46.4955 72.1997 46.6509 71.8796C46.9947 71.3091 47.4988 70.7523 47.9723 70.2929C48.983 69.3463 50.3189 68.7611 51.7234 68.4819C52.4257 68.3423 53.1303 68.3696 53.868 68.4665C54.6057 68.5633 55.3128 68.7575 55.9587 69.1466C57.2811 69.8272 58.4199 71.0922 58.5996 72.4414C58.7059 73.1507 58.5884 73.8741 58.3743 74.5559C58.2519 74.9455 58.0965 75.2655 57.9411 75.5856L57.8163 75.8082L57.6278 76.0587L57.251 76.5598C55.5245 78.9118 52.4708 80.2494 49.3671 80.349C47.7669 80.378 46.1949 80.1426 44.6511 79.643L44.0712 79.393L43.9109 79.3792C43.9109 79.3792 43.8143 79.3375 43.9109 79.3792L43.8143 79.3375L43.5244 79.2125L42.9445 78.9626L42.4283 78.6847C41.7188 78.3236 41.0068 77.7955 40.3279 77.337C37.5767 75.2663 35.2636 72.4998 33.5537 69.3852C33.1268 68.6482 32.7305 67.8139 32.3673 67.0491C32.1691 66.6319 31.971 66.2148 31.8365 65.7698C31.6383 65.3526 31.5368 64.9771 31.3387 64.5599C30.7064 62.9051 30.298 61.2361 30.0168 59.5115C29.4238 56.1595 29.6297 52.7097 30.7409 49.8712C30.8632 49.4816 31.0186 49.1616 31.2377 48.8136L31.3319 48.6884L31.3625 48.591C31.3625 48.591 31.3931 48.4936 31.3625 48.591L31.5509 48.3405L31.8311 47.7978C31.9559 47.5751 32.0501 47.4499 32.1443 47.3246L32.4906 46.921C32.679 46.6704 32.9947 46.3642 33.1831 46.1137C34.2243 45.0697 35.4613 44.2759 36.8303 43.7602C39.4717 42.6873 42.6084 42.6572 45.159 44.1438L46.0642 44.7552C46.3236 44.9775 46.5829 45.1999 46.7456 45.3806C46.9083 45.5613 47.0073 45.7699 47.1064 45.9785C47.2055 46.1871 47.2409 46.4235 47.2128 46.6878L47.2482 46.9243L47.2176 47.0217C47.2176 47.0217 47.2201 47.1886 47.2176 47.0217L47.187 47.1191L47.1001 47.7451C47.0083 48.0373 47.0107 48.2042 46.8553 48.5242C46.6387 49.0391 46.2619 49.5401 45.852 49.9716C44.9992 50.7651 43.7905 51.2946 42.5769 51.4902C42.0019 51.5741 41.3302 51.6163 40.7198 51.4637C40.5595 51.4499 40.3993 51.4361 40.3026 51.3944C40.1423 51.3807 39.9821 51.3669 39.8854 51.3252L39.3386 51.1448C39.1453 51.0614 39.0487 51.0198 38.8884 51.006C36.5054 50.034 34.3623 47.949 32.7611 45.7106C32.3367 45.1406 31.9758 44.5427 31.615 43.9448L31.5489 43.8057L31.5159 43.7362C31.5159 43.7362 31.5489 43.8057 31.5159 43.7362L31.3838 43.4581L31.1527 42.9714C30.9875 42.6238 30.8555 42.3457 30.6267 42.0259C30.2329 41.3585 30.0323 40.7744 29.8317 40.1903C29.5675 39.6341 29.3339 38.9805 29.1334 38.3964C27.4603 33.4178 27.3263 28.6049 27.7794 24.5428C28.2961 20.4528 29.6238 17.0995 30.9637 14.5808C31.3712 13.9824 31.6184 13.3702 31.9952 12.8691C32.3721 12.3681 32.6853 11.8949 32.9985 11.4218C33.3118 10.9486 33.6911 10.6145 33.9737 10.2387C34.2563 9.86292 34.572 9.55667 34.8241 9.27828C35.9619 8.27593 36.5296 7.6913 36.5296 7.6913L36.5932 7.66343C36.8147 7.48244 36.8404 7.0512 36.6117 6.73143C36.416 6.48119 35.9988 6.41193 35.7774 6.59292C35.7774 6.59292 35.113 7.1359 33.8785 8.09659C32.7101 9.19633 30.9409 10.8112 29.4102 13.4135C27.7828 15.9741 26.2336 19.5084 25.5284 23.8489C24.8233 28.1894 24.868 33.4613 26.645 38.9824C26.8149 39.6639 27.1452 40.3592 27.4118 41.0823C27.6784 41.8054 27.945 42.5286 28.3058 43.1265C28.471 43.4741 28.6031 43.7522 28.7682 44.0999L28.9993 44.5865L29.1314 44.8647L29.2305 45.0732L29.2966 45.2123C29.6904 45.8797 30.0843 46.5471 30.5417 47.1866C32.3716 49.7448 34.8095 52.2886 38.0954 53.7051C38.2887 53.7884 38.5456 53.8439 38.7389 53.9272L39.123 53.9269C39.4129 54.0519 39.5732 54.0657 39.8301 54.1212C40.087 54.1766 40.2473 54.1904 40.5042 54.2459C41.4021 54.3565 42.234 54.3281 43.0965 54.2023C44.8215 53.9507 46.412 53.254 47.7382 52.0012C48.3696 51.3887 48.9349 50.6371 49.3374 49.7048C49.5234 49.2874 49.707 48.703 49.7964 48.2439L49.8833 47.6179L49.9139 47.5205L49.9115 47.3536L49.909 47.1867C49.9066 47.0198 49.9372 46.9224 49.8712 46.7833C49.8308 46.213 49.7905 45.6427 49.5264 45.0865C49.3258 44.5024 48.965 43.9046 48.5429 43.5015C48.1845 43.0705 47.7319 42.7648 47.3429 42.4312C46.9233 42.1951 46.5343 41.8615 46.1147 41.6253C44.4364 40.6806 42.572 40.1534 40.7149 40.1269C38.9214 40.0725 37.1022 40.4494 35.4787 41.0765C33.8883 41.7732 32.3663 42.7758 31.1366 44.0703C30.854 44.4461 30.5053 44.6828 30.2557 45.1281L29.8482 45.7266C29.7234 45.9492 29.5656 46.1024 29.5044 46.2971L29.2242 46.8398L29.0358 47.0904C28.9391 47.0487 28.9061 46.9792 28.9391 47.0487L28.9085 47.1461L28.8143 47.2713C28.6283 47.6888 28.4423 48.1062 28.2563 48.5237C26.9616 51.9465 26.8902 55.8414 27.5847 59.5688C27.9319 61.4326 28.503 63.2822 29.1048 65.0345C29.3359 65.5212 29.5341 65.9383 29.7016 66.4529C29.8997 66.87 30.0979 67.2872 30.296 67.7044C30.7253 68.6082 31.1852 69.4147 31.6451 70.2212C33.5814 73.4887 36.1538 76.4775 39.2279 78.7427C40.0365 79.3124 40.8121 79.8126 41.6819 80.1876L42.2947 80.5071L42.9712 80.7987L43.2612 80.9237L43.3578 80.9654L43.4544 81.007L43.6477 81.0903L44.2912 81.3124C46.0283 81.8954 47.8879 82.0888 49.6153 82.0041C53.1668 81.8764 56.5055 80.33 58.6724 77.449C59.6452 76.099 60.4198 74.3319 60.1337 72.2734C59.9589 71.258 59.4966 70.2847 58.8128 69.4923C58.162 68.7694 57.384 68.1023 56.5142 67.7273C55.7081 67.3245 54.8077 67.0469 53.9098 66.9363C53.0118 66.8257 52.1799 66.8541 51.3504 67.0494C49.7221 67.3427 48.2613 68.1505 47.0598 69.1808C44.5627 71.3664 43.7487 74.8307 44.0518 78.0576C44.3548 81.2846 45.7442 84.3716 47.6047 86.8324C49.4652 89.2932 51.7662 91.2251 54.0293 92.7536C58.619 95.7827 63.3827 97.5598 67.5568 98.4192C69.6756 98.835 71.6954 99.0422 73.5194 98.9992C75.3765 99.0257 77.0379 98.8019 78.506 98.4949C81.4422 97.8807 83.5392 96.7942 84.9339 95.8473C85.1248 95.7637 85.2826 95.6106 85.4098 95.5549C85.5371 95.4991 85.6949 95.346 85.7891 95.2207C86.0106 95.0397 86.232 94.8588 86.3262 94.7335C86.6749 94.4968 86.8328 94.3436 86.8328 94.3436C87.1178 94.1348 87.0799 93.7314 86.8842 93.4812C86.7521 93.2031 86.368 93.2033 86.1465 93.3843Z" fill="#E17CFD"/>
<path d="M84.6905 89.0566C85.3214 89.214 85.9866 89.4429 86.5518 89.6289C87.1512 89.8863 87.685 90.1722 88.0901 90.6865C88.4611 91.1293 88.7691 91.7721 89.0428 92.3434L89.422 93.3003C89.4563 93.3717 89.6274 93.7288 89.7615 93.8431C89.7957 93.9145 89.8956 93.9574 89.9641 94.1002L90.0982 94.2145C90.1324 94.2859 90.1324 94.2859 90.2323 94.3288L90.3322 94.3717C90.3322 94.3717 90.4322 94.4146 90.4978 94.3861C90.4978 94.3861 90.6949 94.3006 90.7578 94.1007C90.7893 94.0008 90.7551 93.9294 90.7865 93.8294L90.7523 93.758L90.7181 93.6866L90.7893 94.0008C91.1613 92.4589 91.7332 91.0029 92.305 89.5468C92.8454 88.1907 93.3831 86.6632 93.7866 85.0215C93.8782 84.5503 93.6044 83.979 93.1391 83.8359C92.9393 83.7501 92.6738 83.6928 92.5424 83.7499L92.4767 83.7784C91.0317 84.4057 89.6523 85.0046 88.2414 85.7033C87.5531 86.0884 86.8648 86.4735 86.1765 86.8586C85.4881 87.2437 84.834 87.7002 84.2456 88.1282C84.0828 88.2851 84.0541 88.5564 84.1882 88.6707C84.3251 88.9564 84.5249 89.0422 84.6905 89.0566C85.4158 88.9142 86.1726 88.672 86.9293 88.4297C87.6861 88.1875 88.4086 87.8738 89.1654 87.6315C90.6105 87.0042 91.9899 86.4053 93.4007 85.7066L92.1594 84.6064C92.0992 84.9776 92.039 85.3488 91.9788 85.72C91.9187 86.0912 91.7928 86.4909 91.7327 86.8621L91.1404 89.1035C90.7683 90.6453 90.2307 92.1728 89.9928 93.8289L90.064 94.1431C90.064 94.1431 90.064 94.1431 90.0298 94.0717C89.9955 94.0003 90.027 93.9004 89.9928 93.8289C90.0557 93.6291 90.2528 93.5435 90.2528 93.5435C90.3184 93.515 90.4184 93.5579 90.4184 93.5579L90.5183 93.6008C90.5525 93.6722 90.5183 93.6008 90.5183 93.6008L90.484 93.5294C90.4498 93.458 90.3499 93.4151 90.3157 93.3437C90.1816 93.2294 90.1816 93.2294 90.0789 93.0151L89.634 92.0867C89.326 91.444 89.018 90.8013 88.513 90.2441C87.9737 89.6155 87.34 89.2867 86.7063 88.9579C86.1069 88.7005 85.4418 88.4716 84.7766 88.2427C84.5768 88.1569 84.3798 88.2425 84.3511 88.5138C84.2881 88.7136 84.4907 88.9708 84.6905 89.0566Z" fill="#E17CFD"/>
</svg>
