<svg width="392" height="618" viewBox="0 0 392 618" fill="none" xmlns="http://www.w3.org/2000/svg">
<path d="M-101.692 -19.1443C-104.423 2.39051 -102.883 24.5906 -108.8 45.46C-123.227 96.3731 -177.397 125.261 -228.94 137.342C-280.483 149.422 -335.318 150.998 -382.835 174.354C-433.433 199.215 -471.145 248.797 -481.58 304.192C-488.688 341.94 -484.591 383.854 -506.196 415.613C-519.082 434.522 -539.426 446.952 -554.483 464.18C-589.954 504.623 -591.249 564.641 -582.425 617.725C-574.232 666.957 -554.343 752.606 -481.93 759.189C-356.713 770.569 -313.538 882.41 -190.983 854.292C8.11762 808.561 -0.286222 710.692 62.6023 628.44C105.392 572.449 156.165 514.498 241.498 435.257C279.911 399.611 358.416 437.323 409.785 426.853C490.286 410.466 551.914 350.273 622.191 307.729C692.468 265.185 720.061 190.251 742.121 111.115C765.826 26.0262 811.207 -23.9414 724.298 -130.285C668.412 -198.671 596.735 -253.891 514.167 -285.23C401.136 -328.159 277.985 -335.408 157.075 -337.404C98.3886 -338.384 -75.2902 -343.706 -105.124 -273.185C-121.231 -235.192 -71.5786 -195.589 -70.5982 -155.671C-69.4777 -108.89 -95.8445 -65.0851 -101.692 -19.1443Z" stroke="#272735" stroke-miterlimit="10"/>
<path d="M663.16 -105.773C613.472 -168.802 548.763 -220.485 473.619 -249.233C404.393 -275.74 330.719 -286.175 256.66 -289.081C220.979 -290.482 185.333 -291.112 149.967 -290.447C97.1631 -289.432 -57.2219 -291.322 -84.1842 -226.263C-98.6807 -191.457 -54.8409 -155.216 -54.3857 -118.729C-53.7904 -76.0797 -77.8464 -36.1266 -83.9391 5.6824C-86.7404 25.2213 -85.7599 45.3554 -91.4325 64.299C-105.264 110.485 -154.496 136.922 -201.452 148.442C-248.374 159.927 -298.306 162.028 -341.726 183.458C-387.947 206.288 -422.263 251.214 -433.118 301.216C-440.646 335.952 -438.65 374.435 -459.064 404.128C-471.215 421.811 -489.948 433.787 -503.92 450.034C-532.843 483.684 -537.92 530.956 -533.578 575.776C-532.983 581.869 -532.212 587.927 -531.302 593.879C-524.299 640.766 -505.565 720.707 -438.265 727.255C-325.549 738.25 -285.666 836.96 -175.436 811.223C2.97039 769.799 -3.22745 681.559 53.6734 607.15C79.1299 573.85 107.248 539.745 143.734 500.317C165.234 477.101 189.465 451.96 218.143 424.507C238.487 404.863 270.877 407.034 304.037 410.501C328.478 413.022 353.234 416.384 373.719 412.182C400.121 406.754 424.491 396.705 447.812 384.099C491.022 360.814 530.905 328.564 572.574 301.917C636.198 261.228 659.343 191.827 678.427 118.539C680.388 111.045 682.524 103.832 684.73 96.8287C705.879 30.7888 732.561 -17.7082 663.16 -105.773Z" stroke="#272735" stroke-miterlimit="10"/>
<path d="M602.091 -81.2628C558.636 -138.934 500.825 -187.081 433.139 -213.273C370.846 -237.364 304.246 -245.557 237.611 -245.522C205.816 -245.487 174.162 -245.557 142.998 -243.561C96.0414 -240.585 -39.0148 -239.009 -63.1057 -179.412C-75.9916 -147.793 -37.9293 -114.913 -38.0343 -81.8581C-37.9993 -43.3756 -59.7442 -7.23924 -66.0471 30.4028C-68.9184 47.9808 -68.4981 66.014 -73.8906 82.9967C-87.0916 124.42 -131.422 148.476 -173.791 159.366C-216.125 170.256 -261.121 172.847 -300.408 192.386C-342.252 213.221 -373.241 253.489 -384.447 298.099C-392.43 329.859 -392.535 364.875 -411.724 392.467C-423.174 408.89 -440.297 420.41 -453.148 435.712C-479.795 467.366 -485.152 511.206 -481.791 552.98C-481.336 558.653 -480.67 564.29 -479.935 569.893C-473.947 614.433 -456.544 688.666 -394.356 695.179C-294.141 705.719 -257.584 791.368 -159.61 768.012C-1.89795 730.896 -5.88978 652.285 44.9883 585.755C68.8341 554.556 94.8509 522.481 127.696 485.504C147.305 463.444 169.19 439.528 195.066 413.652C213.73 394.988 242.933 395.408 273.362 397.474C295.807 398.91 318.708 401.396 337.931 397.404C362.442 392.327 385.308 383.328 407.158 372.053C447.706 351.183 485.488 321.735 523.27 295.998C580.241 257.201 598.94 193.262 615.047 125.821C616.693 118.923 618.479 112.27 620.404 105.792C638.333 45.4947 662.248 -1.3916 602.091 -81.2628Z" stroke="#272735" stroke-miterlimit="10"/>
<path d="M541.025 -56.7158C503.768 -109.065 452.89 -153.64 392.627 -177.276C337.267 -198.95 277.775 -204.903 218.528 -201.892C190.621 -200.456 162.958 -199.896 135.961 -196.604C94.8173 -191.632 -20.7701 -186.59 -42.0948 -132.49C-53.3349 -104.022 -21.1903 -74.5389 -21.7155 -44.9155C-22.3458 -10.5649 -41.7796 21.6847 -48.1875 55.23C-51.1639 70.812 -51.2689 86.7793 -56.4163 101.836C-69.022 138.533 -108.415 160.138 -146.162 170.432C-183.909 180.692 -224.002 183.808 -259.158 201.491C-296.59 220.295 -324.323 255.941 -335.843 295.159C-344.282 323.942 -346.488 355.526 -364.486 381.018C-375.201 396.215 -390.713 407.28 -402.478 421.601C-426.849 451.295 -432.522 491.633 -430.141 530.395C-429.826 535.648 -429.3 540.9 -428.705 546.083C-423.838 588.312 -407.696 656.768 -350.585 663.281C-262.905 673.33 -229.675 745.743 -143.921 724.979C-6.97381 691.854 -8.68972 623.188 36.2006 564.501C58.4707 535.368 82.3516 505.359 111.555 470.833C129.273 449.894 148.777 427.169 171.887 402.938C188.8 385.22 214.887 383.994 242.584 384.554C263.069 384.975 284.113 386.515 302.041 382.733C324.697 377.971 345.986 370.058 366.4 360.078C404.323 341.625 440.004 314.978 473.864 290.186C524.182 253.35 538.469 194.838 551.564 133.21C552.895 126.907 554.366 120.815 555.976 114.862C570.928 60.2372 591.973 14.8917 541.025 -56.7158Z" stroke="#272735" stroke-miterlimit="10"/>
<path d="M479.921 -32.2056C448.896 -79.267 404.916 -120.271 352.113 -141.28C303.651 -160.539 251.372 -164.321 199.443 -158.263C175.457 -155.462 151.682 -154.201 128.921 -149.649C93.5202 -142.611 -2.59839 -134.207 -21.0868 -85.5699C-30.7161 -60.2534 -4.38419 -34.1665 -5.43467 -7.97463C-6.66022 22.2091 -23.748 50.607 -30.366 80.0553C-33.4123 93.6765 -34.0426 107.578 -38.9798 120.639C-50.9903 152.573 -85.446 171.797 -118.606 181.496C-151.766 191.161 -186.922 194.802 -217.946 210.56C-251.001 227.367 -275.547 258.391 -287.243 292.147C-296.207 317.953 -300.409 346.071 -317.216 369.497C-327.231 383.468 -341.132 394.043 -351.777 407.454C-373.837 435.186 -379.86 472.058 -378.459 507.774C-378.284 512.607 -377.899 517.474 -377.443 522.271C-373.697 562.154 -358.815 624.833 -306.781 631.416C-231.602 640.87 -201.699 700.257 -128.235 682.013C-12.0177 653.125 -11.4574 594.194 27.4102 543.351C48.0696 516.318 69.8494 488.341 95.411 456.301C111.238 436.482 128.326 414.947 148.705 392.362C163.867 375.554 186.873 372.683 211.804 371.808C230.327 371.142 249.481 371.843 266.148 368.236C286.948 363.789 306.697 356.961 325.605 348.277C360.866 332.205 394.482 308.464 424.42 284.513C468.12 249.637 477.925 196.553 488.044 140.773C489.095 135.065 490.215 129.533 491.546 124.14C503.521 74.978 521.694 31.1381 479.921 -32.2056Z" stroke="#272735" stroke-miterlimit="10"/>
<path d="M418.854 -7.69379C394.063 -49.5028 356.981 -86.8647 311.636 -105.318C270.107 -122.196 225.077 -123.877 180.361 -114.702C160.297 -110.57 140.373 -108.47 121.885 -102.762C92.0861 -93.5878 15.5415 -81.8924 -0.0756139 -38.7179C-8.09425 -16.5878 12.425 6.13748 10.8493 28.8978C9.0285 54.9146 -5.74821 79.4607 -12.5763 104.777C-15.6927 116.403 -16.8833 128.238 -21.5404 139.373C-32.9205 166.545 -62.474 183.353 -91.0469 192.457C-119.585 201.526 -149.839 205.658 -176.766 219.524C-205.444 234.301 -226.909 260.703 -238.709 289.066C-248.233 311.931 -254.431 336.547 -270.013 357.907C-279.327 370.653 -291.618 380.737 -301.142 393.203C-320.926 418.94 -327.264 452.38 -326.844 485.015C-326.774 489.462 -326.564 493.874 -326.249 498.321C-323.657 535.893 -310.001 592.759 -263.045 599.377C-200.367 608.166 -173.789 654.632 -112.582 638.84C-17.0933 614.188 -14.292 564.956 18.5529 521.956C37.6365 496.99 57.2104 471.008 79.2004 441.49C93.1367 422.757 107.808 402.412 125.456 381.508C138.867 365.611 158.791 361.094 180.992 358.747C197.554 356.997 214.852 356.822 230.259 353.425C249.167 349.328 267.376 343.551 284.849 336.197C317.448 322.541 348.998 301.672 375.05 278.596C412.131 245.751 417.454 197.99 424.597 148.057C425.332 142.945 426.138 137.972 427.153 133.105C436.152 89.7554 451.454 47.3162 418.854 -7.69379Z" stroke="#272735" stroke-miterlimit="10"/>
<path d="M357.786 16.8525C339.262 -19.7741 309.043 -53.4244 271.121 -69.2866C236.526 -83.7481 198.813 -83.503 161.276 -71.0374C145.169 -65.6799 129.027 -62.5285 114.845 -55.8055C90.5793 -44.2852 33.6785 -29.5085 20.9327 8.20356C14.5248 27.1472 29.2314 46.511 27.1305 65.8397C24.7494 87.6896 12.2838 108.384 5.24556 129.604C2.05912 139.233 0.308381 149.002 -4.10362 158.212C-14.8885 180.657 -39.5047 195.048 -63.4905 203.522C-87.4414 211.961 -112.758 216.618 -135.553 228.629C-159.854 241.409 -178.378 263.154 -190.143 286.125C-200.333 306.049 -208.386 327.198 -222.778 346.422C-231.357 357.907 -242.037 367.572 -250.51 379.057C-268.018 402.833 -274.636 432.771 -275.232 462.395C-275.302 466.421 -275.197 470.448 -275.057 474.475C-273.621 509.736 -261.19 560.754 -219.311 567.442C-169.133 575.461 -145.883 609.146 -96.9658 595.77C-22.2069 575.356 -17.1645 535.823 9.69265 500.667C27.1656 477.802 44.5685 453.781 62.9868 426.783C74.9973 409.135 87.2528 389.982 102.205 370.758C113.865 355.771 130.672 349.608 150.141 345.827C164.708 342.99 180.15 341.94 194.296 338.789C211.349 335.007 228.017 330.315 244.019 324.257C273.992 313.017 303.476 295.054 325.571 272.819C356.07 242.075 356.875 199.6 361.042 155.48C361.462 150.963 361.952 146.551 362.653 142.209C368.816 104.532 381.281 63.3886 357.786 16.8525Z" stroke="#272735" stroke-miterlimit="10"/>
<path d="M296.683 41.3629C284.532 9.77859 261.072 -20.0199 230.608 -33.3259C202.91 -45.3714 172.552 -43.5506 142.193 -27.4433C130.077 -21.0354 117.717 -16.4133 107.807 -8.88487C89.1087 5.29656 51.8168 22.8045 41.9073 55.0891C37.0751 70.8463 46.0392 86.8136 43.378 102.781C40.4367 120.464 30.2821 137.306 23.0338 154.394C19.7773 162.063 17.4663 169.731 13.2994 176.979C3.14476 194.662 -16.5692 206.638 -35.968 214.552C-55.3318 222.395 -75.7111 227.577 -94.4095 237.662C-114.299 248.412 -130.161 265.465 -141.646 283.078C-152.676 299.99 -162.445 317.708 -175.611 334.866C-183.49 345.126 -192.559 354.3 -199.912 364.84C-215.109 386.655 -222.077 413.127 -223.618 439.704C-223.828 443.31 -223.863 446.952 -223.863 450.594C-223.653 483.543 -212.378 528.609 -175.541 535.472C-137.829 542.51 -117.975 563.625 -81.2786 552.7C-27.2491 536.593 -19.9658 506.689 0.868664 479.412C16.7309 458.647 31.9278 436.587 46.8096 412.111C56.8942 395.549 66.7335 377.55 78.9891 360.043C88.8636 345.966 102.625 338.123 119.327 332.905C131.933 328.983 145.519 327.058 158.37 324.116C173.567 320.65 188.694 317.043 203.19 312.281C230.503 303.422 257.99 288.47 276.094 266.97C300.114 238.432 296.298 201.14 297.488 162.868C297.593 158.946 297.803 155.095 298.189 151.313C301.515 119.343 311.285 79.3201 296.683 41.3629Z" stroke="#272735" stroke-miterlimit="10"/>
<path d="M235.615 65.9097C230.118 39.2626 213.17 13.3858 190.13 2.67096C169.365 -6.95841 146.045 -4.01708 123.109 16.1521C114.811 23.4704 106.652 29.9833 100.769 38.037C88.0935 55.4399 69.8853 75.1538 62.9171 101.976C59.6606 114.547 62.8822 127.152 59.6957 139.688C56.2291 153.239 48.3856 166.195 40.8922 179.186C37.6007 184.859 34.6944 190.496 30.8076 195.784C21.2483 208.739 6.47159 218.299 -8.34013 225.582C-23.0818 232.83 -38.5589 238.503 -53.1255 246.697C-68.6375 255.451 -82.0136 267.601 -93.0086 280.067C-105.124 293.828 -116.364 308.255 -128.305 323.346C-135.448 332.381 -142.906 341.099 -149.174 350.694C-162.095 370.513 -169.378 393.518 -171.899 417.084C-172.25 420.27 -172.46 423.527 -172.565 426.783C-173.58 457.387 -163.391 496.29 -131.701 503.573C-106.42 509.386 -89.9272 518.21 -65.5562 509.666C-32.2211 497.971 -22.7317 477.591 -7.88501 458.158C6.40147 439.459 19.2874 419.325 30.7026 397.44C38.7912 381.928 46.2146 365.12 55.8439 349.328C63.8976 336.092 74.6125 326.603 88.5838 320.02C99.2286 314.978 110.924 312.211 122.514 309.48C135.855 306.364 149.406 303.808 162.467 300.376C187.154 293.933 212.715 282.028 226.721 261.228C244.369 234.931 235.861 202.752 234.04 170.327C233.865 167 233.725 163.709 233.795 160.453C234.32 134.156 241.638 95.1129 235.615 65.9097Z" stroke="#272735" stroke-miterlimit="10"/>
<path d="M58.7154 203.977C30.5976 235.561 -10.581 251.773 -44.4764 277.055C-82.7138 305.558 -112.197 347.367 -120.286 394.393C-125.433 424.437 -116.959 462.219 -87.9662 471.568C-61.109 480.252 -33.8667 459.242 -16.7439 436.797C-4.06814 420.2 6.47168 401.956 14.4903 382.663C25.8355 355.42 33.6791 324.081 57.735 306.993C75.9782 294.038 99.614 292.357 121.639 288.295C143.664 284.233 167.545 275.479 177.244 255.275C189.92 228.838 172.237 198.584 169.296 169.416C167.23 148.897 172.657 110.939 174.513 90.3851C178.19 49.5566 134.77 7.36246 104.026 59.7462C77.7641 104.532 98.5985 159.156 58.7154 203.977Z" stroke="#272735" stroke-miterlimit="10"/>
</svg>
